<svg xmlns="http://www.w3.org/2000/svg" width="16.323" height="12.229" viewBox="0 0 16.323 12.229">
  <g id="Group_77" data-name="Group 77" transform="translate(-2524.07 560.774)">
    <path id="Path_190" data-name="Path 190" d="M2540.388-472.961a1.629,1.629,0,0,1-.048.393,1.5,1.5,0,0,1-1.536,1.137h-6.518q-3.314,0-6.629,0a1.571,1.571,0,0,1-1.131-.428,1.684,1.684,0,0,1-.457-.874v-7.49a.431.431,0,0,1,.071.031l6.624,4.418a2.458,2.458,0,0,0,2.918.009q3.273-2.18,6.545-4.363c.046-.031.094-.06.162-.1v.13Q2540.39-476.53,2540.388-472.961Z" transform="translate(0 -77.115)" fill="#1a1818"/>
    <path id="Path_191" data-name="Path 191" d="M2539.747-558.075c-.992.675-1.995,1.334-2.993,2l-3.564,2.376a1.518,1.518,0,0,1-1.918,0c-2.094-1.4-4.183-2.8-6.284-4.182a1.843,1.843,0,0,1-.918-1.177v-.414c.026-.091.049-.183.079-.273a1.508,1.508,0,0,1,1.445-1.028c.313,0,.627,0,.94,0q6.127,0,12.255,0a1.54,1.54,0,0,1,1.21.5A1.447,1.447,0,0,1,2539.747-558.075Z" fill="#1a1818"/>
  </g>
</svg>
