<?xml version="1.0" encoding="utf-8"?>
<!-- Generator: Adobe Illustrator 22.1.0, SVG Export Plug-In . SVG Version: 6.00 Build 0)  -->
<svg version="1.1" id="Layer_1" xmlns="http://www.w3.org/2000/svg" xmlns:xlink="http://www.w3.org/1999/xlink" x="0px" y="0px"
	 viewBox="0 0 25.2 20.9" style="enable-background:new 0 0 25.2 20.9;" xml:space="preserve">
<style type="text/css">
	.st0{fill:#28A1B2;}
</style>
<g id="Group_9" transform="translate(0.25 0.25)">
	<path id="Path_10" class="st0" d="M24.5,5.4c-0.7-2.8-3.1-5-6-5.3c-1.9-0.3-3.9,0.3-5.4,1.6c-0.3,0.2-0.5,0.5-0.8,0.8c0,0,0,0,0,0
		c0,0-0.1-0.1-0.1-0.1c-0.6-0.6-1.2-1.2-2-1.5C6.7-1,2.5,0.4,0.8,3.9c-0.2,0.5-0.4,1-0.6,1.5C0.1,5.8,0.1,6.2,0,6.5v1
		c0,0.1,0,0.1,0,0.2c0.1,0.9,0.4,1.8,0.8,2.6c0.8,1.5,1.8,2.8,3,4c2.4,2.4,5.2,4.4,8.1,6.1c0.3,0.2,0.6,0.2,0.9,0
		c3-1.7,5.7-3.7,8.1-6.1c1.2-1.2,2.2-2.5,3-4C24.7,8.7,24.9,7,24.5,5.4z"/>
	<path id="Path_10_-_Outline" class="st0" d="M7-0.3c1.1,0,2.3,0.3,3.3,0.8c0.8,0.4,1.5,0.9,2.1,1.6L12.4,2c0.2-0.2,0.4-0.4,0.6-0.5
		c1.3-1.1,2.9-1.7,4.6-1.7l0,0c0.3,0,0.6,0,0.9,0.1c1.5,0.2,2.8,0.8,4,1.8c1.1,1,1.9,2.3,2.2,3.7c0.4,1.7,0.2,3.5-0.6,5
		c-0.8,1.5-1.8,2.9-3,4.1c-2.4,2.4-5.2,4.4-8.2,6.1c-0.3,0.2-0.8,0.2-1.1,0c-3-1.7-5.7-3.7-8.2-6.1c-1.2-1.2-2.2-2.5-3-4
		C0.2,9.5-0.1,8.6-0.2,7.7c0,0,0,0,0-0.1c0,0,0,0,0-0.1l0,0v-1v0c0-0.1,0-0.2,0.1-0.3c0-0.3,0.1-0.5,0.1-0.8c0.5-2.2,2-4.1,4.2-5
		C5,0,6-0.2,7-0.3z M12.3,2.7c0,0-0.1,0-0.1-0.1c0,0-0.1-0.1-0.1-0.1c-0.5-0.6-1.2-1.1-1.9-1.5c-0.9-0.5-2-0.7-3-0.7
		c-0.9,0-1.9,0.2-2.7,0.6c-2,0.8-3.4,2.6-3.9,4.7C0.4,5.7,0.3,6,0.3,6.2c0,0.1,0,0.2-0.1,0.3v0.9v0c0,0.1,0,0.1,0,0.2
		c0.1,0.9,0.4,1.7,0.8,2.5C1.8,11.6,2.8,12.9,4,14c2.4,2.4,5.1,4.4,8.1,6.1c0.1,0.1,0.2,0.1,0.3,0.1c0.1,0,0.2,0,0.3-0.1
		c2.9-1.6,5.7-3.7,8.1-6c1.2-1.1,2.2-2.5,2.9-3.9c0.8-1.4,1-3.1,0.6-4.7c-0.6-2.8-3-4.8-5.8-5.1c-0.3,0-0.6-0.1-0.9-0.1
		c-1.6,0-3.1,0.6-4.3,1.6C13.1,2,13,2.2,12.8,2.4c-0.1,0.1-0.2,0.2-0.3,0.2l-0.1,0.1L12.3,2.7z M17.7,1c0.1,0,0.3,0,0.4,0"/>
</g>
</svg>
