<svg xmlns="http://www.w3.org/2000/svg" width="36.485" height="30.284" viewBox="0 0 36.485 30.284">
  <g id="Component_3_1" data-name="Component 3 – 1" transform="translate(0.25 0.256)">
    <path id="Path_10" data-name="Path 10" d="M1065.973,712.357a10.112,10.112,0,0,0-8.7-7.72,9.863,9.863,0,0,0-7.8,2.342c-.417.352-.8.75-1.193,1.128a.19.19,0,0,1-.061-.027c-.059-.058-.116-.117-.171-.178a9.5,9.5,0,0,0-2.932-2.255,10.235,10.235,0,0,0-14.553,6.805c-.128.52-.188,1.056-.279,1.586v1.405a1.769,1.769,0,0,1,.057.237,11.192,11.192,0,0,0,1.179,3.8,22.636,22.636,0,0,0,4.322,5.762,57.078,57.078,0,0,0,11.814,8.879,1.115,1.115,0,0,0,1.244,0,56.023,56.023,0,0,0,11.838-8.844,22.331,22.331,0,0,0,4.341-5.834A10.015,10.015,0,0,0,1065.973,712.357Zm-2.87,6.974a23.248,23.248,0,0,1-4.522,5.522,56.572,56.572,0,0,1-10.084,7.406.365.365,0,0,1-.44,0,58.354,58.354,0,0,1-10.141-7.508,21.784,21.784,0,0,1-4.847-6.186,8.046,8.046,0,0,1,.32-8.232,8.167,8.167,0,0,1,7.107-3.97,8.286,8.286,0,0,1,6.781,3.487,3.647,3.647,0,0,0,.325.414.927.927,0,0,0,1.323.007,3.877,3.877,0,0,0,.354-.436,8.21,8.21,0,0,1,7.434-3.444,8.382,8.382,0,0,1,7.586,6.838A8.916,8.916,0,0,1,1063.1,719.332Z" transform="translate(-1030.28 -704.526)" fill="#fff" stroke="#fff" stroke-width="0.5"/>
  </g>
</svg>
