<svg xmlns="http://www.w3.org/2000/svg" width="30.5" height="24.443" viewBox="0 0 30.5 24.443">
  <g id="Group_7" data-name="Group 7" transform="translate(-1858.75 -128.883)">
    <g id="Group_5" data-name="Group 5" transform="translate(792.799 -327.465)">
      <g id="Group_5-2" data-name="Group 5" transform="translate(1066.201 463.07)">
        <path id="Path_7" data-name="Path 7" d="M1088.917,478.685H1073.83a.7.7,0,0,1-.644-.423l-6.928-16.068a.7.7,0,0,1,.644-.979h28.6a.7.7,0,0,1,.582.311.706.706,0,0,1,.068.655l-6.585,16.068A.7.7,0,0,1,1088.917,478.685Zm-14.625-1.4h14.155l6.011-14.666h-26.489Z" transform="translate(-1066.202 -461.214)" fill="#1a1818"/>
        <path id="Path_7_-_Outline" data-name="Path 7 - Outline" d="M1088.917,478.935H1073.83a.951.951,0,0,1-.873-.574l-6.928-16.069a.95.95,0,0,1,.873-1.328h28.6a.953.953,0,0,1,.881,1.309l-6.585,16.07A.948.948,0,0,1,1088.917,478.935ZM1066.9,461.464a.45.45,0,0,0-.414.631l6.927,16.067a.451.451,0,0,0,.414.272h15.087a.45.45,0,0,0,.418-.281l6.585-16.068a.452.452,0,0,0-.418-.621Zm21.711,16.068h-14.487l-.065-.151-6.474-15.015h27.242Zm-14.158-.5h13.822l5.806-14.166h-25.736Z" transform="translate(-1066.202 -461.214)" fill="#1a1818"/>
      </g>
      <g id="Group_6" data-name="Group 6" transform="translate(1076.42 456.598)">
        <path id="Path_8" data-name="Path 8" d="M1082.7,468.767a.7.7,0,0,1-.7-.7v-6.908a3.576,3.576,0,0,0-7.1,0v6.908a.7.7,0,0,1-1.4,0v-6.908a4.971,4.971,0,0,1,9.907,0v6.908A.7.7,0,0,1,1082.7,468.767Z" transform="translate(-1073.489 -456.598)" fill="#1a1818"/>
        <path id="Path_8_-_Outline" data-name="Path 8 - Outline" d="M1082.7,469.017a.952.952,0,0,1-.951-.951v-6.908a3.328,3.328,0,0,0-6.6,0v6.908a.951.951,0,0,1-1.9,0v-6.908a5.22,5.22,0,0,1,10.407,0v6.908A.952.952,0,0,1,1082.7,469.017Zm-4.254-11.267a3.626,3.626,0,0,1,3.8,3.408v6.908a.451.451,0,1,0,.9,0v-6.908a4.722,4.722,0,0,0-9.407,0v6.908a.451.451,0,0,0,.9,0v-6.908A3.624,3.624,0,0,1,1078.441,457.75Z" transform="translate(-1073.489 -456.598)" fill="#1a1818"/>
      </g>
    </g>
  </g>
</svg>
