<svg xmlns="http://www.w3.org/2000/svg" width="44.386" height="44.392" viewBox="0 0 44.386 44.392">
  <g id="Group_73" data-name="Group 73" transform="translate(-1559.756 -323.3)">
    <path id="Path_169" data-name="Path 169" d="M1603.606,363.067a13.554,13.554,0,0,0-11.368-9.773,35.02,35.02,0,0,0-3.979-.134,5,5,0,0,1-1.7-.574.217.217,0,0,1-.107-.166c-.009-.477-.019-.954,0-1.429,0-.1.133-.211.233-.271a9.3,9.3,0,0,0,3.871-4.474c.1-.241.256-.249.469-.27a11.894,11.894,0,0,0,2.512-.322,4.767,4.767,0,0,0,3.372-4.028,4.885,4.885,0,0,0-2-4.868.747.747,0,0,1-.32-.682,12.632,12.632,0,0,0-9.865-12.461c-.571-.137-1.157-.212-1.736-.316h-2.081c-.11.027-.22.057-.33.08a23.669,23.669,0,0,0-2.532.552,12.6,12.6,0,0,0-8.74,12.105.819.819,0,0,1-.359.75,5.1,5.1,0,0,0,.5,8.483,5.88,5.88,0,0,0,3.383.708.48.48,0,0,1,.543.353,8.045,8.045,0,0,0,3.1,3.856,1.788,1.788,0,0,1,.98,2.022c-.009.057.012.122-.007.173-.028.074-.063.181-.122.2a4.94,4.94,0,0,1-1.746.577,32.806,32.806,0,0,0-4.533.232,13.6,13.6,0,0,0-11.289,13.1c-.014.908.263,1.187,1.181,1.187h16.776a3.169,3.169,0,0,0,.433-.01.862.862,0,0,0-.006-1.713,4.093,4.093,0,0,0-.477-.009h-16.116c.395-6.656,6.338-11.066,11.175-10.975a6.264,6.264,0,0,0,.417.913c1.255,1.87,2.527,3.73,3.795,5.591.493.723,1.016.772,1.634.158q1.522-1.515,3.035-3.034c.108-.108.221-.21.346-.329,1.127,1.128,2.219,2.22,3.312,3.312.684.683,1.173.64,1.716-.156,1.179-1.73,2.362-3.457,3.529-5.2.263-.393.461-.829.715-1.291a11.813,11.813,0,0,1,11.118,11.008h-16.117c-.145,0-.289-.008-.433.006a.863.863,0,0,0,.008,1.722c.115.01.232.006.346.006q8.411,0,16.819.008a1.184,1.184,0,0,0,1.179-.615v-1.3C1603.967,364.872,1603.852,363.951,1603.606,363.067Zm-8.937-24.086a3.2,3.2,0,0,1,.024,3.709,3.425,3.425,0,0,1-3.379,1.543v-6.744A3.388,3.388,0,0,1,1594.669,338.981Zm-22.1,5.253a3.428,3.428,0,0,1-3.4-1.581,3.2,3.2,0,0,1,.023-3.629,3.4,3.4,0,0,1,3.376-1.538Zm.047-8.529-1.591.095a10.59,10.59,0,0,1,4.667-8.762,10.393,10.393,0,0,1,11.867-.412,10.628,10.628,0,0,1,5.306,9.171l-1.586-.088a9.339,9.339,0,0,0-18.662,0Zm16.938,1.077a9.955,9.955,0,0,1-4.411-1.708c-.142-.1-.278-.207-.419-.307a.908.908,0,0,0-1.228,0,10.525,10.525,0,0,1-4.865,2.013,10.65,10.65,0,0,1-3.955-.189c-.258-.06-.306-.178-.31-.412a7.569,7.569,0,0,1,15.041-1.326C1589.505,335.464,1589.508,336.086,1589.559,336.782Zm-15.2,6.113c-.059-1.457-.013-2.917-.013-4.376a.985.985,0,0,1,.031-.17c.61.076,1.205.171,1.805.221a11.969,11.969,0,0,0,7.589-1.886.526.526,0,0,1,.68,0,11.243,11.243,0,0,0,4.732,1.8c.211.029.381.057.375.351-.03,1.559-.028,3.119-.074,4.676a5.416,5.416,0,0,1-.254,1.268.459.459,0,0,1-.332.271c-1.214.02-2.427.017-3.641,0a.435.435,0,0,1-.312-.2,2.619,2.619,0,0,0-2.6-1.521,8.747,8.747,0,0,0-1.592.1,2.559,2.559,0,0,0-1.922,2.888,2.608,2.608,0,0,0,2.507,2.216c.4.009.809.008,1.214,0a2.512,2.512,0,0,0,2.337-1.442.465.465,0,0,1,.49-.3c.953.013,1.905.006,2.957.006a7.593,7.593,0,0,1-13.974-3.9Zm6.962,3.891a.84.84,0,0,1-.775-.836.829.829,0,0,1,.768-.882,10.535,10.535,0,0,1,1.339,0,.835.835,0,0,1,.777.877.848.848,0,0,1-.813.845c-.215.015-.432,0-.649,0v0C1581.75,346.79,1581.533,346.806,1581.319,346.786Zm-3.445,12.988-2.888-4.243c.945-.418,1.837-.818,2.734-1.2a.334.334,0,0,1,.3.028c.9.878,1.778,1.767,2.635,2.625Zm4.068-3.954c-.91-.913-1.789-1.786-2.653-2.673a.651.651,0,0,1-.1-.4c-.013-.358,0-.718,0-1.14a9.718,9.718,0,0,0,5.489.007c.046.763.17,1.442-.528,2.021C1583.363,354.286,1582.69,355.069,1581.942,355.82Zm4.049,3.977-2.8-2.8,2.09-2.079c.691-.69.691-.693,1.563-.3.668.3,1.333.6,2.039.918Z" fill="#28a1b2"/>
    <path id="Path_170" data-name="Path 170" d="M1745.646,692.5a.864.864,0,1,1-.863-.887A.877.877,0,0,1,1745.646,692.5Z" transform="translate(-162.835 -325.658)" fill="#28a1b2"/>
  </g>
</svg>
