<svg xmlns="http://www.w3.org/2000/svg" width="56.623" height="51.955" viewBox="0 0 56.623 51.955">
  <g id="Group_69" data-name="Group 69" transform="translate(-913.09 -219.76)">
    <path id="Path_153" data-name="Path 153" d="M965.58,246.907a13.587,13.587,0,0,0,3.011-4.435,14.254,14.254,0,0,0,.49-1.365,15.494,15.494,0,0,0,.537-2.578,4.126,4.126,0,0,1,.1-.416v-2.324a9.947,9.947,0,0,0-.218-1.186c-.4-1.278-.793-2.558-1.247-3.816a.79.79,0,0,0-1.131-.47.85.85,0,0,0-.357,1.18c.035.084.081.165.118.249a12.152,12.152,0,0,1-1.144,12.426,11.04,11.04,0,0,1-3.356,3.192c-1.539-1.684-3.073-3.325-4.564-5a3.523,3.523,0,0,0-2.822-1.247c-3.428.019-6.855-.01-10.284.024a.737.737,0,0,1-.857-.662,12.9,12.9,0,0,1-.37-5.09,12.343,12.343,0,0,1,21.334-6.721c.444.479.924.551,1.3.22s.375-.842-.055-1.312a13.483,13.483,0,0,0-3.735-2.9.678.678,0,0,1-.444-.72c.029-.736.018-1.473.006-2.21a1.845,1.845,0,0,0-1.976-1.97q-4.2-.018-8.4,0a1.863,1.863,0,0,0-1.992,1.967c-.016.737-.022,1.475,0,2.212a.689.689,0,0,1-.428.728,13.906,13.906,0,0,0-7.261,14.078c.1.777.276,1.542.426,2.364h-20.8a2.07,2.07,0,0,0-2.288,1.724.733.733,0,0,1-.084.14c-.855,0-1.7,0-2.549,0s-1.242.276-1.236.839.407.818,1.255.82h2.569v8.022H918.5c-1.383,0-2.765.015-4.146-.007a1.409,1.409,0,0,0-1.261.5v.664a1.383,1.383,0,0,0,1.255.512c1.581-.019,3.163-.007,4.816-.007,0,.762.013,1.476-.013,2.188,0,.106-.215.193-.3.31-.177.237-.46.487-.466.736a.941.941,0,0,0,.441.731c.338.156.347.357.347.643q-.009,2.57,0,5.142a1.607,1.607,0,0,0,1.772,1.787c.643.007,1.286,0,1.971,0,.019.18.037.335.062.566-.807,0-1.575,0-2.342,0-.69,0-1.076.308-1.073.836s.388.82,1.085.821c1,0,1.991.006,2.984,0,.687,0,.973-.29.989-.967.01-.369.009-.737.018-1.106,0-.032.03-.065.06-.124h.658c.078.363.142.723.232,1.075a6.373,6.373,0,0,0,9.105,4.015c.538-.292.722-.665.547-1.107-.2-.513-.695-.666-1.281-.372a4.712,4.712,0,1,1-.579-8.58,4.725,4.725,0,0,1,2.774,6.063c-.04.1-.09.2-.128.305a.857.857,0,0,0,.422,1.2.813.813,0,0,0,1.094-.559c.243-.65.42-1.327.64-2.041h14.811a6.455,6.455,0,0,0,2.417,4.438,6.336,6.336,0,0,0,8.216-.277,6.47,6.47,0,0,0,2.091-4.2c1.671.078,3.365.2,4-1.854V256.03a4.982,4.982,0,0,0-1.3-2.07c-1.519-1.629-3.011-3.284-4.512-4.928-.109-.119-.211-.248-.336-.4.112-.1.2-.184.3-.258A15.832,15.832,0,0,0,965.58,246.907ZM951.2,221.727c.009-.114.338-.288.519-.29,1.677-.022,3.353-.013,5.03-.013.976,0,1.952.021,2.928-.009.448-.013.581.152.559.577-.028.55-.006,1.1-.006,1.743a14.209,14.209,0,0,0-9.054.009C951.179,223.029,951.153,222.374,951.2,221.727Zm-25.8,42.444h-4.552v-2.14h5.357C925.936,262.754,925.674,263.453,925.4,264.171Zm10.769-3.847a1.658,1.658,0,0,1-.857-.264,6.416,6.416,0,0,0-7.181.021,1.18,1.18,0,0,1-.588.243c-2.082.018-4.164.012-6.246.012h-.429V258.4h2.749c.239,0,.479.009.718,0a.848.848,0,0,0,.9-.839.834.834,0,0,0-.882-.805c-.922-.022-1.843-.009-2.763-.01h-.739v-2.42c1.087,0,2.119,0,3.15,0a2.651,2.651,0,0,0,.6-.046.754.754,0,0,0,.619-.855.769.769,0,0,0-.814-.745c-.958-.016-1.917-.009-2.874-.012h-.675c-.018-.178-.04-.3-.04-.425,0-2.93.008-5.861-.01-8.791,0-.513.19-.677.683-.675q11.389.011,22.776.006c.125,0,.251.015.408.024v17.506c-.192.01-.37.027-.549.027C941.478,260.335,938.825,260.343,936.171,260.324Zm8.529,3.832h-6.639c-.133-.349-.265-.7-.4-1.051s-.268-.709-.407-1.072H944.7Zm8.927-1.6-.1.267-.018.046c-.062.162-.124.324-.186.488-.068.18-.136.361-.206.546l-.106.279h-6.593v-2.157h7.413C953.761,262.205,953.693,262.382,953.627,262.559Zm5.69,7.5a4.712,4.712,0,1,1,4.747-4.688A4.714,4.714,0,0,1,959.317,270.056Zm8.723-6.476a.637.637,0,0,1-.711.616c-.55.012-1.1,0-1.641,0-.273-.723-.535-1.42-.813-2.157h3.172C968.048,262.559,968.072,263.071,968.041,263.579ZM964.721,252.4a2.183,2.183,0,0,1,.171.267h-.659q-2.515,0-5.031,0a3.057,3.057,0,0,0-.6.037.73.73,0,0,0-.628.734.742.742,0,0,0,.577.83,2.641,2.641,0,0,0,.658.055c2.266,0,4.534-.01,6.8.018a1.626,1.626,0,0,1,.8.349,3.617,3.617,0,0,1,.529.56,1.9,1.9,0,0,1,.686,2.047,10.361,10.361,0,0,0-1.253.512c-.118.066-.158.366-.15.554.024.535.348.708,1.441.78v1.194h-.625c-.811,0-1.623-.024-2.433.006a5.091,5.091,0,0,1-2.762-.633,6.071,6.071,0,0,0-6.448.338,1.855,1.855,0,0,1-.908.277c-2.635.021-5.271.012-7.906.012H946.4V242.81h3.535v.683q0,4.4,0,8.793c0,1.4.627,2.032,2.016,2.036q1.575,0,3.151,0c.786,0,1.19-.295,1.181-.845s-.4-.81-1.2-.814h-.388c-.829,0-1.659,0-2.488,0-.18,0-.361-.016-.579-.027v-9.826c1.33,0,2.634-.029,3.933.022a1.4,1.4,0,0,1,.836.472Q960.574,247.835,964.721,252.4Z" transform="translate(0)" fill="#1a1818"/>
    <path id="Path_154" data-name="Path 154" d="M917.767,410.536c-.012.51-.346.793-.981.8-.81.009-1.621-.021-2.43.01a1.425,1.425,0,0,1-1.264-.487V410.2a1.3,1.3,0,0,1,1.193-.523c.829.024,1.657,0,2.486.01C917.424,409.693,917.779,410.011,917.767,410.536Z" transform="translate(-0.003 -161.909)" fill="#1a1818"/>
    <path id="Path_155" data-name="Path 155" d="M916.959,471.337a.825.825,0,0,1-.907.824,15.333,15.333,0,0,1-2.033-.018,3,3,0,0,1-.926-.467v-.664a1.339,1.339,0,0,1,1.247-.51c.568.027,1.138-.007,1.706.012A.834.834,0,0,1,916.959,471.337Z" transform="translate(-0.003 -213.767)" fill="#1a1818"/>
    <path id="Path_156" data-name="Path 156" d="M996.643,307.208a.739.739,0,0,1-.624.793,2.843,2.843,0,0,1-.6.038q-3.508,0-7.016,0t-7.017,0c-.2,0-.465.044-.59-.062a1.575,1.575,0,0,1-.581-.767.684.684,0,0,1,.612-.786,3.281,3.281,0,0,1,.661-.041q6.934,0,13.868,0a3.276,3.276,0,0,1,.659.04A.735.735,0,0,1,996.643,307.208Z" transform="translate(-57.212 -73.85)" fill="#1a1818"/>
    <path id="Path_157" data-name="Path 157" d="M1019.312,278.6a1.532,1.532,0,0,1-.954.388c-2.5.031-5,.016-7.507.016-2.081,0-4.16,0-6.239,0a.958.958,0,0,1-.978-.479c-.29-.578.128-1.171.845-1.178,1.4-.012,2.8,0,4.2,0h2.815c2.337,0,4.674-.015,7.012.021a1.251,1.251,0,0,1,.854.444A.8.8,0,0,1,1019.312,278.6Z" transform="translate(-77.114 -49.089)" fill="#1a1818"/>
    <path id="Path_158" data-name="Path 158" d="M1200.989,297.166c.006.532-.338.823-1.006.829-.811.007-1.621.009-2.432,0-.751-.007-1.016-.282-1.017-1.047q-.007-2.789,0-5.581c0-.64.326-1.026.835-1.017s.818.4.821,1.041c0,1.619,0,3.238,0,4.949.637,0,1.2-.009,1.772,0C1200.63,296.352,1200.983,296.644,1200.989,297.166Z" transform="translate(-241.646 -60.18)" fill="#1a1818"/>
    <path id="Path_159" data-name="Path 159" d="M1046.653,333.092c0,.491-.372.823-.967.827-1.2.007-2.393,0-3.589,0-1.161,0-2.32,0-3.479,0-.63,0-1.014-.338-1-.848.016-.494.382-.805.991-.807q3.532-.009,7.066,0A.862.862,0,0,1,1046.653,333.092Z" transform="translate(-106.167 -95.911)" fill="#1a1818"/>
    <path id="Path_160" data-name="Path 160" d="M995.588,333.062a.829.829,0,0,1-.9.83c-.588.012-1.178,0-1.767,0s-1.178.01-1.768,0a.826.826,0,1,1-.013-1.649q1.794-.027,3.589,0A.817.817,0,0,1,995.588,333.062Z" transform="translate(-65.798 -95.886)" fill="#1a1818"/>
    <path id="Path_161" data-name="Path 161" d="M1198.149,263.761a3.968,3.968,0,0,1,0,.607.82.82,0,0,1-1.637-.056c-.021-.367-.018-.737,0-1.1a.8.8,0,0,1,.82-.848.821.821,0,0,1,.83.849c.013.183,0,.367,0,.551Z" transform="translate(-241.614 -36.318)" fill="#1a1818"/>
    <path id="Path_162" data-name="Path 162" d="M1260.561,331.986a.731.731,0,0,1-.672.749,5.255,5.255,0,0,1-.715.006v0a5.479,5.479,0,0,1-.661,0,.735.735,0,0,1-.687-.737.693.693,0,0,1,.566-.824,6.4,6.4,0,0,1,1.584-.006A.7.7,0,0,1,1260.561,331.986Z" transform="translate(-293.9 -94.945)" fill="#1a1818"/>
    <path id="Path_163" data-name="Path 163" d="M1130.544,331.917a.745.745,0,0,1-.749.736c-.22.019-.441,0-.662,0v0a5.538,5.538,0,0,1-.606,0,.755.755,0,0,1-.722-.768.725.725,0,0,1,.653-.823,6.15,6.15,0,0,1,1.426,0A.725.725,0,0,1,1130.544,331.917Z" transform="translate(-183.053 -94.848)" fill="#1a1818"/>
    <path id="Path_164" data-name="Path 164" d="M1183.81,519.419l.106-.279c-.034.093-.069.186-.1.279Z" transform="translate(-230.801 -255.235)" fill="#1a1818"/>
    <path id="Path_165" data-name="Path 165" d="M1024.085,510.75a2.663,2.663,0,1,0,2.673,2.67A2.675,2.675,0,0,0,1024.085,510.75Zm.015,3.664a.988.988,0,0,1-1.023-.992,1.011,1.011,0,0,1,1.015-1.012,1.026,1.026,0,0,1,1,.975A1.007,1.007,0,0,1,1024.1,514.414Z" transform="translate(-92.348 -248.082)" fill="#1a1818"/>
    <path id="Path_166" data-name="Path 166" d="M1026.714,393.956c-1.11-1.1-2.222-2.207-3.374-3.265a3.541,3.541,0,0,0-1.314-.771,3.252,3.252,0,0,0-3.576,1.228c-.6.684-.609.966.022,1.629.978,1.025,1.933,2.073,2.821,3.03-.751.808-1.582,1.744-2.461,2.635-1.119,1.135-1.135,1.25,0,2.373a3.131,3.131,0,0,0,4.546.047q1.679-1.6,3.327-3.235A2.437,2.437,0,0,0,1026.714,393.956Zm-1.084,2.393c-1.163,1.155-2.33,2.309-3.53,3.425a1.351,1.351,0,0,1-1.927-.018c.986-1.062,1.942-2.109,2.923-3.133.637-.665.636-1.006.007-1.671-.976-1.031-1.924-2.088-2.9-3.154a1.284,1.284,0,0,1,1.837-.04c1.236,1.132,2.424,2.318,3.613,3.5A.716.716,0,0,1,1025.63,396.349Z" transform="translate(-89.43 -144.941)" fill="#1a1818"/>
    <path id="Path_167" data-name="Path 167" d="M978.873,423.733a.808.808,0,0,1-.873.852c-.956.015-1.912.016-2.867,0a.824.824,0,1,1,0-1.647c.5-.018.992,0,1.488,0,.46,0,.92-.012,1.379,0A.811.811,0,0,1,978.873,423.733Z" transform="translate(-52.17 -173.209)" fill="#1a1818"/>
    <path id="Path_168" data-name="Path 168" d="M1211.358,510.74a2.664,2.664,0,1,0-.052,5.328,2.664,2.664,0,0,0,.052-5.328Zm-.074,3.666a1.008,1.008,0,0,1-.963-1,1.026,1.026,0,0,1,1.031-1,1,1,0,0,1,.978,1.041A.975.975,0,0,1,1211.284,514.405Z" transform="translate(-251.986 -248.073)" fill="#1a1818"/>
  </g>
</svg>
