<svg xmlns="http://www.w3.org/2000/svg" xmlns:xlink="http://www.w3.org/1999/xlink" width="36" height="36" viewBox="0 0 36 36">
  <defs>
    <clipPath id="clip-path">
      <rect id="Rectangle_45" data-name="Rectangle 45" width="36" height="36" rx="10" transform="translate(0 0)" fill="#1a1818"/>
    </clipPath>
  </defs>
  <g id="Mask_Group_6" data-name="Mask Group 6" clip-path="url(#clip-path)">
    <g id="Group_86" data-name="Group 86" transform="translate(0 -0.223)">
      <path id="Path_192" data-name="Path 192" d="M3232.238-581.83q0,13.248,0,26.494a4.563,4.563,0,0,1-4.74,4.8q-3.483,0-6.967,0h-.433v-15.008h4.378c.181-2,.359-3.969.543-5.993h-4.708v-.81c0-.561-.008-1.122,0-1.682a1.24,1.24,0,0,1,1.4-1.374c.932-.007,1.863,0,2.795,0h.414v-5.125a.946.946,0,0,0-.16-.027c-1.62,0-3.242-.046-4.861,0a5.521,5.521,0,0,0-4.624,2.285,6.981,6.981,0,0,0-1.166,4.066c-.011.724,0,1.449,0,2.174v.453H3211.2v6.014h2.924v15c-.138.007-.28.019-.42.019q-6.2,0-12.4,0a4.564,4.564,0,0,1-4.721-4.774q0-13.267,0-26.535a4.561,4.561,0,0,1,4.709-4.785q13.106,0,26.21,0A4.563,4.563,0,0,1,3232.238-581.83Z" transform="translate(-3196.585 586.635)" fill="#1a1818"/>
    </g>
  </g>
</svg>
