<svg width="35.655" height="36.098" xmlns="http://www.w3.org/2000/svg"><path d="M23.951 36.102h-.432V21.095h4.378a8099.324 8099.324 0 0 1 .543-5.993h-4.707v-.81-.076l-.003-.87c0-.245.002-.49.007-.736.002-.184.028-.367.08-.544.122-.406.39-.66.807-.769a2.1 2.1 0 0 1 .512-.061c.64-.005 1.28-.003 1.921-.002h1.288V6.11a1.206 1.206 0 0 1-.04-.008l-.07-.015a.308.308 0 0 0-.05-.004c-.48-.002-.962-.005-1.443-.01-.546-.005-1.094-.01-1.64-.01a57.167 57.167 0 0 0-1.778.024 6.18 6.18 0 0 0-3.155.874 5.179 5.179 0 0 0-1.47 1.41 6.981 6.981 0 0 0-1.165 4.067c-.004.279-.006.557-.005.836l.003 1.338v.453H14.62v6.013h2.924v15.004l-.13.008a7.28 7.28 0 0 1-.29.011l-7.561.002c-1.612 0-3.223 0-4.835-.002a4.885 4.885 0 0 1-2.637-.73C1.013 34.689.281 33.564.07 32.175a5.64 5.64 0 0 1-.063-.847c-.003-8.845-.003-17.69 0-26.535 0-2.8 1.952-4.784 4.71-4.785a51004.471 51004.471 0 0 1 26.21 0 4.929 4.929 0 0 1 2.575.682c1.097.665 1.845 1.777 2.079 3.169.052.315.078.633.077.952a53245.051 53245.051 0 0 1 0 26.495c.013.877-.2 1.743-.618 2.515-.787 1.41-2.268 2.28-4.122 2.281l-3.434.001h-3.533z" fill="#fff" fill-rule="evenodd"/></svg>