<svg xmlns="http://www.w3.org/2000/svg" width="25.195" height="20.938" viewBox="0 0 25.195 20.938">
  <g id="Group_9" data-name="Group 9" transform="translate(0.25 0.25)">
    <path id="Path_10" data-name="Path 10" d="M1054.771,709.9a6.939,6.939,0,0,0-5.971-5.3,6.768,6.768,0,0,0-5.354,1.607c-.286.241-.546.515-.818.774a.13.13,0,0,1-.042-.019c-.041-.04-.079-.08-.117-.122a6.521,6.521,0,0,0-2.012-1.547,7.022,7.022,0,0,0-9.986,4.669c-.088.357-.129.724-.191,1.088v.964a1.209,1.209,0,0,1,.039.163,7.677,7.677,0,0,0,.809,2.607,15.531,15.531,0,0,0,2.966,3.954,39.163,39.163,0,0,0,8.106,6.092.765.765,0,0,0,.853,0,38.44,38.44,0,0,0,8.123-6.068,15.323,15.323,0,0,0,2.978-4A6.871,6.871,0,0,0,1054.771,709.9Zm-1.969,4.785a15.95,15.95,0,0,1-3.1,3.789,38.819,38.819,0,0,1-6.919,5.081.251.251,0,0,1-.3,0,40.037,40.037,0,0,1-6.958-5.152,14.946,14.946,0,0,1-3.326-4.245,5.521,5.521,0,0,1,.22-5.649,5.6,5.6,0,0,1,4.877-2.724,5.685,5.685,0,0,1,4.653,2.392,2.508,2.508,0,0,0,.223.284.636.636,0,0,0,.908.005,2.656,2.656,0,0,0,.243-.3,5.633,5.633,0,0,1,5.1-2.363,5.752,5.752,0,0,1,5.2,4.692A6.117,6.117,0,0,1,1052.8,714.685Z" transform="translate(-1030.28 -704.527)" fill="#1a1818"/>
    <path id="Path_10_-_Outline" data-name="Path 10 - Outline" d="M1037.3,704.277a7.382,7.382,0,0,1,3.263.794,6.786,6.786,0,0,1,2.056,1.569l.081-.079c.185-.182.376-.37.581-.542a6.986,6.986,0,0,1,4.606-1.721h0a7.968,7.968,0,0,1,.938.057,7.187,7.187,0,0,1,3.952,1.758,7.372,7.372,0,0,1,2.232,3.726,7.062,7.062,0,0,1-.635,5.035,15.563,15.563,0,0,1-3.026,4.069,38.621,38.621,0,0,1-8.175,6.108,1,1,0,0,1-1.1,0,39.34,39.34,0,0,1-8.157-6.131,15.569,15.569,0,0,1-3.012-4.018,7.882,7.882,0,0,1-.834-2.691.5.5,0,0,0-.017-.072c-.005-.019-.011-.039-.016-.058l-.007-.03v-1.016l0-.021c.019-.111.036-.223.053-.335.039-.253.078-.514.142-.77a7.017,7.017,0,0,1,4.168-5A7.239,7.239,0,0,1,1037.3,704.277Zm5.233,2.94a.313.313,0,0,1-.127-.074c-.044-.043-.086-.087-.128-.133a6.3,6.3,0,0,0-1.936-1.49,6.886,6.886,0,0,0-3.043-.743,6.742,6.742,0,0,0-2.708.589,6.539,6.539,0,0,0-3.882,4.659c-.058.235-.094.474-.133.726-.016.108-.033.216-.051.323v.91l0,.014a.9.9,0,0,1,.034.155,7.392,7.392,0,0,0,.784,2.521,15.09,15.09,0,0,0,2.919,3.89,38.856,38.856,0,0,0,8.055,6.053.592.592,0,0,0,.3.1.6.6,0,0,0,.3-.1,38.126,38.126,0,0,0,8.07-6.028,15.073,15.073,0,0,0,2.931-3.937,6.583,6.583,0,0,0,.6-4.691,6.666,6.666,0,0,0-5.759-5.11,7.478,7.478,0,0,0-.879-.053,6.5,6.5,0,0,0-4.284,1.6c-.19.16-.366.333-.553.517-.084.083-.169.166-.254.247l-.117.111Zm-5.244-1.679h.008a5.927,5.927,0,0,1,4.844,2.5l.038.052a1.767,1.767,0,0,0,.161.2.386.386,0,0,0,.554,0,1.979,1.979,0,0,0,.183-.224l.036-.048a5.846,5.846,0,0,1,4.869-2.476c.146,0,.3,0,.447.014a5.994,5.994,0,0,1,5.436,4.9,6.355,6.355,0,0,1-.849,4.353,15.907,15.907,0,0,1-3.15,3.849,39.051,39.051,0,0,1-6.963,5.115.546.546,0,0,1-.28.086.532.532,0,0,1-.279-.086,39.825,39.825,0,0,1-7-5.184,15.416,15.416,0,0,1-3.379-4.317,5.76,5.76,0,0,1,.233-5.891,5.876,5.876,0,0,1,5.084-2.842Zm5.33,3.37a.889.889,0,0,1-.634-.267,2.162,2.162,0,0,1-.211-.262l-.036-.05a5.453,5.453,0,0,0-4.454-2.29,5.493,5.493,0,0,0-4.869,8.014,14.952,14.952,0,0,0,3.273,4.172,39.35,39.35,0,0,0,6.916,5.119l.02.011.025-.013a38.568,38.568,0,0,0,6.876-5.049,15.438,15.438,0,0,0,3.056-3.729,5.876,5.876,0,0,0,.794-4.019,5.489,5.489,0,0,0-4.974-4.487,5.4,5.4,0,0,0-4.886,2.264l-.034.045a2.385,2.385,0,0,1-.233.281A.888.888,0,0,1,1042.623,708.907Z" transform="translate(-1030.28 -704.527)" fill="#1a1818"/>
  </g>
</svg>
