<svg xmlns="http://www.w3.org/2000/svg" width="35.358" height="35.368" viewBox="0 0 35.358 35.368">
  <path id="Path_193" data-name="Path 193" d="M3746.709-393.69a9.543,9.543,0,0,0-7.6-7.2,9.166,9.166,0,0,0-1.953-.179c-5.223-.014-10.446-.033-15.669,0a9.51,9.51,0,0,0-8.626,5.011,9.222,9.222,0,0,0-1.215,4.722c0,5.293-.017,10.586,0,15.879a9.633,9.633,0,0,0,6.754,9.267,19.9,19.9,0,0,0,2.216.47h17.4c.528-.1,1.068-.147,1.584-.291a9.577,9.577,0,0,0,7.215-7.6c.081-.356.118-.722.176-1.083v-17.4C3746.906-392.631,3746.854-393.173,3746.709-393.69Zm-17.42,19.982a9.7,9.7,0,0,1-9.653-9.71,9.7,9.7,0,0,1,9.725-9.672,9.7,9.7,0,0,1,9.654,9.71A9.7,9.7,0,0,1,3729.289-373.708Zm10.314-17.021a2.989,2.989,0,0,1-2.949-2.944,2.968,2.968,0,0,1,2.943-2.941,2.947,2.947,0,0,1,2.94,2.936A2.969,2.969,0,0,1,3739.6-390.729Z" transform="translate(-3711.643 401.088)" fill="#1a1818"/>
</svg>
