<svg xmlns="http://www.w3.org/2000/svg" width="245.541" height="51.914" viewBox="0 0 245.541 51.914">
  <path id="Path_1" data-name="Path 1" d="M180.116,376.989l-5.261-30.434a10.739,10.739,0,0,0-11.032-8.9l-44.547,1.867a10.739,10.739,0,0,0-10.191,9.273l-3.913,28.566a10.74,10.74,0,0,0,10.64,12.2h53.722A10.74,10.74,0,0,0,180.116,376.989Zm-55.438-30.4a3.768,3.768,0,1,1-3.768,3.768A3.767,3.767,0,0,1,124.678,346.585Zm9.247,37.809a13.03,13.03,0,0,1-13.015-13.015v-10.8a3.768,3.768,0,1,1,7.535,0v10.8a5.475,5.475,0,0,0,9.266,3.955,15.23,15.23,0,0,0,3.771,6.631A12.939,12.939,0,0,1,133.925,384.394Zm31.509-13.015a13.015,13.015,0,1,1-26.03,0v-8.73a3.768,3.768,0,0,1,7.536,0v8.73a5.479,5.479,0,0,0,10.959,0v-10.8a3.768,3.768,0,1,1,7.535,0Zm-3.768-17.259a3.768,3.768,0,1,1,3.768-3.768A3.768,3.768,0,0,1,161.666,354.12Zm39.735,5.3a8.67,8.67,0,0,1,1.269-.423,6.768,6.768,0,0,1,1.752-.221,6.332,6.332,0,0,1,2.539.443,2.036,2.036,0,0,1,1.249,1.33q.484,1.773.927,3.284t.846,2.921q.4,1.411.786,2.78t.746,2.861h.2q.4-2.5.726-4.815t.624-4.554q.3-2.236.584-4.452t.564-4.553a5.5,5.5,0,0,1,2.861-.766,4.361,4.361,0,0,1,2.3.584,2.1,2.1,0,0,1,.967,1.954,24.394,24.394,0,0,1-.181,2.478q-.182,1.632-.5,3.667t-.746,4.251q-.423,2.216-.887,4.291t-.947,3.788a21.487,21.487,0,0,1-.927,2.72,4.741,4.741,0,0,1-1.773.826,9.131,9.131,0,0,1-2.5.343A7.954,7.954,0,0,1,209,377.69a2.268,2.268,0,0,1-1.471-1.31q-.564-1.692-1.31-4.251t-1.551-5.5q-.323,1.451-.685,2.9t-.726,2.821q-.362,1.37-.705,2.559t-.624,2.115a5.25,5.25,0,0,1-1.632.786,7.836,7.836,0,0,1-2.4.343,8.383,8.383,0,0,1-2.921-.484,2.919,2.919,0,0,1-1.713-1.29,15.75,15.75,0,0,1-.786-2.216q-.423-1.45-.886-3.324t-.927-4.029q-.463-2.155-.887-4.312t-.745-4.211q-.323-2.054-.524-3.747a6.581,6.581,0,0,1,1.41-.866,4.523,4.523,0,0,1,1.975-.423,3.737,3.737,0,0,1,2.236.625,3,3,0,0,1,1.108,2.035q.644,3.788,1.068,6.447t.725,4.554q.3,1.894.524,3.183t.423,2.3h.2q.4-1.652.765-3.062t.746-2.881q.382-1.471.805-3.143T201.4,359.416Zm30.382-1.532a15.886,15.886,0,0,1,3.808.423,8.228,8.228,0,0,1,2.921,1.31,6.015,6.015,0,0,1,1.874,2.256,7.312,7.312,0,0,1,.665,3.224V374.2a2.454,2.454,0,0,1-.544,1.672,5.113,5.113,0,0,1-1.31,1.068,9.958,9.958,0,0,1-3.063,1.168,19.033,19.033,0,0,1-4.11.4,12.03,12.03,0,0,1-6.608-1.591,5.385,5.385,0,0,1-2.458-4.855,5.33,5.33,0,0,1,1.652-4.231,9.043,9.043,0,0,1,5.078-1.813l5.359-.564v-.443A2.032,2.032,0,0,0,234,363.123a6.134,6.134,0,0,0-3.022-.6,12.51,12.51,0,0,0-3,.362,18.529,18.529,0,0,0-2.639.847,2.554,2.554,0,0,1-.826-.987,3.075,3.075,0,0,1-.342-1.431,2.62,2.62,0,0,1,1.854-2.538,12.814,12.814,0,0,1,2.72-.665A21.554,21.554,0,0,1,231.783,357.884Zm.242,16.078a8.523,8.523,0,0,0,1.753-.181,4.046,4.046,0,0,0,1.31-.463v-3.707l-3.3.282a5,5,0,0,0-2.075.584,1.512,1.512,0,0,0-.786,1.39,1.837,1.837,0,0,0,.725,1.531A3.915,3.915,0,0,0,232.025,373.962Zm29.375-1.773a5.5,5.5,0,0,1-2.216,4.654q-2.217,1.672-6.528,1.672a18.07,18.07,0,0,1-3.083-.241,9.184,9.184,0,0,1-2.4-.726,4.3,4.3,0,0,1-1.571-1.209,2.675,2.675,0,0,1-.564-1.692,2.964,2.964,0,0,1,.363-1.512,3.257,3.257,0,0,1,.927-1.027,15.151,15.151,0,0,0,2.66,1.209,10.444,10.444,0,0,0,3.465.524q2.861,0,2.861-1.611a1.211,1.211,0,0,0-.5-1.048,5.07,5.07,0,0,0-1.713-.645l-1.612-.362a10.6,10.6,0,0,1-4.916-2.116,5.08,5.08,0,0,1-1.612-4.009,5.3,5.3,0,0,1,2.317-4.533,10.429,10.429,0,0,1,6.225-1.673,16.213,16.213,0,0,1,2.74.222,8.49,8.49,0,0,1,2.217.665,4.215,4.215,0,0,1,1.471,1.109,2.376,2.376,0,0,1,.544,1.551,3.077,3.077,0,0,1-.323,1.431,3.02,3.02,0,0,1-.846,1.027,5.9,5.9,0,0,0-.947-.443q-.626-.242-1.35-.443a12.938,12.938,0,0,0-1.531-.322,10.129,10.129,0,0,0-1.491-.121,5.121,5.121,0,0,0-2.2.383A1.227,1.227,0,0,0,251,364.05a1.034,1.034,0,0,0,.443.886,4.89,4.89,0,0,0,1.612.6l1.531.363a10.837,10.837,0,0,1,5.238,2.337A5.272,5.272,0,0,1,261.4,372.189ZM273.2,357.884a15.885,15.885,0,0,1,3.808.423,8.215,8.215,0,0,1,2.921,1.31,6.012,6.012,0,0,1,1.874,2.256,7.313,7.313,0,0,1,.665,3.224V374.2a2.458,2.458,0,0,1-.544,1.672,5.107,5.107,0,0,1-1.31,1.068,9.964,9.964,0,0,1-3.062,1.168,19.046,19.046,0,0,1-4.111.4,12.029,12.029,0,0,1-6.608-1.591,5.385,5.385,0,0,1-2.458-4.855,5.33,5.33,0,0,1,1.652-4.231,9.044,9.044,0,0,1,5.077-1.813l5.359-.564v-.443a2.033,2.033,0,0,0-1.047-1.894,6.136,6.136,0,0,0-3.023-.6,12.506,12.506,0,0,0-3,.362,18.506,18.506,0,0,0-2.64.847,2.555,2.555,0,0,1-.826-.987,3.075,3.075,0,0,1-.343-1.431,2.621,2.621,0,0,1,1.854-2.538,12.831,12.831,0,0,1,2.72-.665A21.556,21.556,0,0,1,273.2,357.884Zm.241,16.078a8.509,8.509,0,0,0,1.753-.181,4.039,4.039,0,0,0,1.31-.463v-3.707l-3.3.282a5,5,0,0,0-2.075.584,1.512,1.512,0,0,0-.785,1.39,1.835,1.835,0,0,0,.726,1.531A3.91,3.91,0,0,0,273.446,373.962Zm23.9-16.078a10.551,10.551,0,0,1,3.707.645,8.139,8.139,0,0,1,3,1.934,9.089,9.089,0,0,1,1.994,3.2,12.529,12.529,0,0,1,.726,4.453,12.107,12.107,0,0,1-.766,4.473,8.864,8.864,0,0,1-2.156,3.244,9.047,9.047,0,0,1-3.344,1.974,13.523,13.523,0,0,1-4.372.665,13.836,13.836,0,0,1-4.352-.6,11.747,11.747,0,0,1-3.022-1.451,3.547,3.547,0,0,1-1.733-3.062V351.639q.443-.12,1.169-.241a9.823,9.823,0,0,1,1.612-.121,4.33,4.33,0,0,1,2.6.6,2.764,2.764,0,0,1,.785,2.3v4.594a11.133,11.133,0,0,1,1.854-.625A9.488,9.488,0,0,1,297.341,357.884Zm-1.129,4.836a5.023,5.023,0,0,0-1.672.262,6.967,6.967,0,0,0-1.39.665v9.228a4.176,4.176,0,0,0,1.208.524,6.35,6.35,0,0,0,1.693.2,4.025,4.025,0,0,0,3.2-1.37,7.812,7.812,0,0,0,.04-8.22A3.921,3.921,0,0,0,296.213,362.72Zm19.422,8.019a3.917,3.917,0,0,0,1.974,2.4,7.194,7.194,0,0,0,3.264.705,10.667,10.667,0,0,0,3.183-.463,10.939,10.939,0,0,0,2.418-1.028,3.425,3.425,0,0,1,1.007,1.048,2.617,2.617,0,0,1,.4,1.41,2.46,2.46,0,0,1-.564,1.612,4.38,4.38,0,0,1-1.551,1.149,8.948,8.948,0,0,1-2.337.685,18.344,18.344,0,0,1-2.962.221,13.935,13.935,0,0,1-4.392-.665,9.562,9.562,0,0,1-3.465-1.974,9.032,9.032,0,0,1-2.277-3.284,11.933,11.933,0,0,1-.826-4.633,11.119,11.119,0,0,1,.826-4.473,8.974,8.974,0,0,1,2.216-3.143,8.791,8.791,0,0,1,3.184-1.833,11.832,11.832,0,0,1,3.687-.584,10.925,10.925,0,0,1,3.767.625,8.717,8.717,0,0,1,2.942,1.753,7.913,7.913,0,0,1,1.914,2.7,8.483,8.483,0,0,1,.685,3.425,2.533,2.533,0,0,1-.685,1.934,3.588,3.588,0,0,1-1.934.846Zm3.828-8.3a4.07,4.07,0,0,0-2.881,1.068,4.676,4.676,0,0,0-1.35,3.083l7.7-1.25a3.206,3.206,0,0,0-3.465-2.9Zm18.052,8.3a3.918,3.918,0,0,0,1.974,2.4,7.2,7.2,0,0,0,3.264.705,10.671,10.671,0,0,0,3.183-.463,10.943,10.943,0,0,0,2.418-1.028,3.425,3.425,0,0,1,1.007,1.048,2.613,2.613,0,0,1,.4,1.41,2.457,2.457,0,0,1-.564,1.612,4.377,4.377,0,0,1-1.551,1.149,8.949,8.949,0,0,1-2.337.685,18.339,18.339,0,0,1-2.962.221,13.935,13.935,0,0,1-4.392-.665,9.562,9.562,0,0,1-3.465-1.974,9.044,9.044,0,0,1-2.277-3.284,11.934,11.934,0,0,1-.826-4.633,11.12,11.12,0,0,1,.826-4.473,8.98,8.98,0,0,1,2.216-3.143,8.792,8.792,0,0,1,3.184-1.833,11.834,11.834,0,0,1,3.687-.584,10.929,10.929,0,0,1,3.768.625,8.715,8.715,0,0,1,2.941,1.753,7.913,7.913,0,0,1,1.914,2.7,8.482,8.482,0,0,1,.685,3.425,2.533,2.533,0,0,1-.685,1.934,3.589,3.589,0,0,1-1.934.846Zm3.828-8.3a4.069,4.069,0,0,0-2.881,1.068,4.674,4.674,0,0,0-1.35,3.083l7.7-1.25a3.207,3.207,0,0,0-3.465-2.9Z" transform="translate(-105.07 -337.644)" fill="#28a1b2"/>
</svg>
