<svg id="momo" xmlns="http://www.w3.org/2000/svg" width="40" height="40" viewBox="0 0 40 40">
  <path id="Path_223" data-name="Path 223" d="M36,0H4A4,4,0,0,0,0,4V36a4,4,0,0,0,4,4H36a4,4,0,0,0,4-4V4A4,4,0,0,0,36,0Z" fill="#af016d"/>
  <path id="Path_224" data-name="Path 224" d="M20.8,27.5v4.3c0,.1-.1.2-.3.2H17c-.2,0-.2,0-.2-.2V23.7a.982.982,0,0,0-1.7-.7c-.2.1-.2.3-.2.6v8.2c0,.2-.1.2-.3.2H11.2c-.2,0-.3,0-.3-.2V23.7a.9.9,0,0,0-.7-1,1.1,1.1,0,0,0-1.1.4,1.3,1.3,0,0,0-.1.6v8.1c0,.2-.1.2-.3.2H5.2C5,32,5,32,5,31.8V23.5a4.3,4.3,0,0,1,2.7-4,5,5,0,0,1,5,.3h.4a5.1,5.1,0,0,1,7.2,1.8,4.1,4.1,0,0,1,.5,1.9Z" fill="#fefcfd"/>
  <path id="Path_225" data-name="Path 225" d="M20.8,12.5v4.3c0,.2-.1.2-.2.2H17c-.2,0-.2,0-.2-.2V8.7a1,1,0,0,0-1.6-.8.9.9,0,0,0-.3.7v8.1a.3.3,0,0,1-.3.3H11.2c-.3,0-.3-.1-.3-.3v-8a1,1,0,0,0-1.4-.9c-.4.1-.5.4-.5.8v8.1c0,.3-.1.3-.3.3H5.2c-.2,0-.2-.1-.2-.2V8.7A4.6,4.6,0,0,1,7.9,4.4a5.3,5.3,0,0,1,4.9.4c.1.1.1.1.2,0a5.1,5.1,0,0,1,6.3.6,4.6,4.6,0,0,1,1.5,3.1Z" fill="#fefcfd"/>
  <path id="Path_226" data-name="Path 226" d="M35,25.5a6.5,6.5,0,1,1-.5-2.511A6.5,6.5,0,0,1,35,25.5Zm-3.7,0a2.8,2.8,0,1,0-2.8,2.8,2.7,2.7,0,0,0,2.8-2.8Z" fill="#fefcfd"/>
  <path id="Path_227" data-name="Path 227" d="M35,10.5a6.5,6.5,0,1,1-1.868-4.561A6.5,6.5,0,0,1,35,10.5Zm-9.3,0a2.8,2.8,0,1,0,.82-1.98A2.8,2.8,0,0,0,25.7,10.5Z" fill="#fefcfd"/>
  <path id="Path_228" data-name="Path 228" d="M23.1,34.3a1.1,1.1,0,0,1,.8-.3.7.7,0,0,1,.4.6v1.3c0,.1,0,.1-.1.1s-.4.1-.4-.3v-.9c0-.2,0-.3-.3-.4a.4.4,0,0,0-.3.4c-.1.3,0,.7-.1,1s.1.2,0,.2-.3.1-.5,0V34.7c0-.1,0-.3-.2-.3s-.4.1-.4.3v1c0,.3,0,.3-.3.3s-.2,0-.2-.2V34.3c0-.1-.1-.3.1-.3s.3,0,.4.3a.5.5,0,0,1,.5-.3.7.7,0,0,1,.6.3Z" fill="#faf1f9"/>
  <path id="Path_229" data-name="Path 229" d="M5.5,34.3a.9.9,0,0,1,.6-.3h.3c.1,0,.1.2.3.2L7,34a.6.6,0,0,1,.9.5v1.3a.1.1,0,0,1-.1.1c-.4,0-.4.1-.4-.3v-.8c0-.3-.1-.5-.3-.5a.4.4,0,0,0-.4.4v1c0,.2-.1.2-.2.2s-.3.1-.3-.3v-.9c0-.2,0-.4-.3-.4s-.3.1-.4.4v1c0,.2,0,.2-.2.2H5.2c-.2.1-.2.1-.2,0V34.3c0-.1-.1-.3.1-.3S5.5,33.9,5.5,34.3Z" fill="#faf1f9"/>
  <path id="Path_230" data-name="Path 230" d="M12,35.7c-.1.1,0,.3-.1.3h-.4V33.4c0-.1,0-.1.1-.1a.353.353,0,0,1,.4.4v.5a1.1,1.1,0,0,1,.6-.2.8.8,0,0,1,.8.6c0,.4.1.8-.3,1.2a.7.7,0,0,1-1,0Zm.9-.7a.4.4,0,0,0-.1-.3.3.3,0,0,0-.3-.3c-.2,0-.4.1-.4.3a.9.9,0,0,0,0,.7.4.4,0,0,0,.7,0C12.9,35.3,12.9,35.2,12.9,35Z" fill="#faf1f9"/>
  <path id="Path_231" data-name="Path 231" d="M34,35.4a7.605,7.605,0,0,0,.4-1.1.3.3,0,0,1,.3-.3c.1.1.2,0,.3,0l-.2.6-.6,1.7a.8.8,0,0,1-.9.5c-.2-.1-.1-.3-.2-.4s.1,0,.2,0,.5-.3.4-.6a11.092,11.092,0,0,0-.7-1.6c0-.1,0-.2.2-.2s.3,0,.5.4Z" fill="#faf1f9"/>
  <path id="Path_232" data-name="Path 232" d="M25.2,35a.9.9,0,0,1,.9-1,1,1,0,0,1,1.1,1,.9.9,0,0,1-1,1C25.6,36.1,25.2,35.7,25.2,35Zm1.4.1c0-.4-.2-.7-.4-.7a.6.6,0,0,0-.5.6v.3a.5.5,0,0,0,.7.3C26.6,35.5,26.6,35.2,26.6,35.1Z" fill="#faf1f9"/>
  <path id="Path_233" data-name="Path 233" d="M10.7,35c0,.6-.4,1.1-1,1a1,1,0,0,1,0-2,.9.9,0,0,1,1,1Zm-.5,0c0-.1,0-.1-.1-.2a.4.4,0,0,0-.4-.4c-.2,0-.4.1-.4.3a.6.6,0,0,0,0,.6c0,.2.1.3.4.3S10.2,35.4,10.2,35Z" fill="#faf1f9"/>
  <path id="Path_234" data-name="Path 234" d="M31.7,35.2h-.6q.1.3.3.3c.2.1.3,0,.4-.1s.5-.1.5,0v.1a.7.7,0,0,1-.5.4c-.8.2-1.4-.3-1.2-1.2s.4-.8.8-.8a.9.9,0,0,1,.9.7c.1.5.1.5-.3.5Zm-.2-.4h.4c-.1-.1-.2-.3-.4-.3s-.3.1-.4.3,0,.2.1.1Z" fill="#faf1f9"/>
  <path id="Path_235" data-name="Path 235" d="M28.4,34.4a1,1,0,0,1,.8-.4.6.6,0,0,1,.5.6v1.3c0,.1,0,.1-.1.1h-.1c-.2,0-.3,0-.3-.3a1.4,1.4,0,0,0,0-.9c0-.3-.1-.4-.3-.4a.4.4,0,0,0-.4.4v1c0,.2,0,.2-.2.2-.4,0-.3.1-.3-.3V34.2c0-.1,0-.2.1-.1S28.5,34,28.4,34.4Z" fill="#faf1f9"/>
  <path id="Path_236" data-name="Path 236" d="M18.2,35.2h-.5c-.1,0-.2,0-.1.1a.3.3,0,0,0,.3.3.206.206,0,1,0,.4-.1c0-.2.2-.1.3-.1s.3.1.1.3a.8.8,0,0,1-1,.3.7.7,0,0,1-.6-.6,1.1,1.1,0,0,1,.8-1.4,1,1,0,0,1,.9.6c.2.5.1.6-.4.6Zm-.3-.4h.3c.1.1.2,0,.1-.1s-.2-.3-.4-.3a.3.3,0,0,0-.3.3c-.1.1-.1.2.1.1Z" fill="#faf1f9"/>
  <path id="Path_237" data-name="Path 237" d="M16.2,34.7v1.1c0,.2,0,.2-.1.2s-.4,0-.4-.3V33.5c0-.2.1-.2.2-.2s.3-.1.3.3Z" fill="#faf1f9"/>
  <path id="Path_238" data-name="Path 238" d="M14.8,35c0,.3-.1.6,0,.8s-.1.2-.2.2-.4,0-.4-.3a7.5,7.5,0,0,0,0-1.5.2.2,0,0,1,.2-.2c.4.1.4,0,.4.4Z" fill="#fefcfd"/>
  <path id="Path_239" data-name="Path 239" d="M14.5,33.3c.2-.1.3.1.3.2a.451.451,0,0,1-.3.3q-.15,0-.3-.3C14.1,33.3,14.3,33.3,14.5,33.3Z" fill="#faf1f9"/>
</svg>
