<svg width="245.541" height="51.914" xmlns="http://www.w3.org/2000/svg"><path d="M75.046 39.349L69.785 8.915A10.74 10.74 0 0 0 58.752.014L14.205 1.88a10.74 10.74 0 0 0-10.19 9.273L.1 39.72c-.884 6.45 4.13 12.198 10.64 12.198h53.722c5.923 0 10.729-4.795 10.743-10.718 0-.62-.054-1.24-.16-1.851zm31.399-4.598h.201a240.43 240.43 0 0 0 .726-4.816c.21-1.517.419-3.035.624-4.553a605.579 605.579 0 0 0 1.148-9.006c.86-.51 1.814-.766 2.861-.766.39-.002.779.04 1.158.127.402.092.786.246 1.14.458.644.39.966 1.041.966 1.954 0 .432-.035 1.018-.106 1.757a67.967 67.967 0 0 1-.284 2.397 94.068 94.068 0 0 1-.295 1.991 133.85 133.85 0 0 1-.745 4.251 142.226 142.226 0 0 1-.887 4.292 80.528 80.528 0 0 1-.468 1.985 61.92 61.92 0 0 1-.478 1.802c-.095.336-.194.67-.299 1.002a17.143 17.143 0 0 1-.629 1.718c-.141.12-.295.224-.458.313-.344.192-.782.363-1.315.513a9.13 9.13 0 0 1-2.498.343c-1.128 0-2.089-.155-2.88-.463-.794-.309-1.284-.746-1.472-1.31-.1-.3-.197-.6-.293-.9-.305-.955-.644-2.071-1.016-3.351a309.27 309.27 0 0 1-.76-2.655 397.05 397.05 0 0 1-.792-2.846c-.215.97-.443 1.937-.684 2.901a210.054 210.054 0 0 1-1.084 4.146 113.053 113.053 0 0 1-.635 2.224 146.066 146.066 0 0 1-.337 1.125 3.39 3.39 0 0 1-.47.306 6.682 6.682 0 0 1-1.162.48c-.712.228-1.51.343-2.397.343a9.288 9.288 0 0 1-1.673-.145 7.486 7.486 0 0 1-1.248-.338 5.023 5.023 0 0 1-.682-.307c-.496-.273-.84-.601-1.03-.983a8.34 8.34 0 0 1-.23-.538c-.152-.386-.31-.854-.475-1.403a69.024 69.024 0 0 1-.46-1.626 93.03 93.03 0 0 1-.54-2.101 144.756 144.756 0 0 1-.896-3.902 245.12 245.12 0 0 1-.886-4.312 111.6 111.6 0 0 1-1.269-7.958c.141-.119.29-.229.444-.33.167-.11.352-.22.555-.329.136-.072.273-.141.411-.207.475-.224.986-.36 1.509-.403a5.28 5.28 0 0 1 1.422.067 3.24 3.24 0 0 1 1.28.537c.326.24.587.555.761.918.159.319.274.691.347 1.117a867.535 867.535 0 0 1 .782 4.675c.097.59.192 1.181.286 1.772l.482 3.026.243 1.528a345.852 345.852 0 0 0 .524 3.183c.066.383.134.765.204 1.147.075.41.148.793.22 1.15h.201c.268-1.102.524-2.122.766-3.063.247-.96.495-1.92.745-2.88a491.82 491.82 0 0 0 .806-3.143 96.45 96.45 0 0 0 .382-1.568c.168-.716.343-1.49.525-2.321.103-.047.208-.09.314-.128.258-.095.576-.194.955-.296a6.627 6.627 0 0 1 1.753-.221c.357-.001.714.02 1.07.062.557.069 1.047.196 1.468.381.214.092.416.212.6.355.316.246.545.588.65.975a206.163 206.163 0 0 0 .926 3.284 480.813 480.813 0 0 1 1.632 5.701c.255.914.504 1.868.746 2.862zm-72.11-1.012v-8.73a3.768 3.768 0 0 1 7.535 0v8.73a5.486 5.486 0 0 0 5.48 5.48 5.486 5.486 0 0 0 5.479-5.48V22.941a3.768 3.768 0 1 1 7.535 0v10.798c-.008 7.185-5.83 13.007-13.015 13.015-7.184-.008-13.007-5.83-13.015-13.015zm113.693-.842l-1.612-.362a17.145 17.145 0 0 1-1.9-.501c-1.272-.421-2.277-.96-3.015-1.615a4.67 4.67 0 0 1-1.492-2.685 6.934 6.934 0 0 1-.12-1.324c0-1.908.772-3.418 2.317-4.534 1.295-.934 2.964-1.478 5.007-1.629.405-.03.812-.044 1.218-.043.967 0 1.88.074 2.74.222.784.135 1.468.331 2.05.588l.167.076c.275.13.538.287.784.465.255.185.486.401.686.644.36.436.553.986.544 1.551.002.263-.027.526-.085.783a2.795 2.795 0 0 1-.237.648 3.084 3.084 0 0 1-.846 1.027 5.445 5.445 0 0 0-.83-.397 12.067 12.067 0 0 0-1.024-.36 12.647 12.647 0 0 0-1.975-.452 11.477 11.477 0 0 0-.822-.094 8.783 8.783 0 0 0-1.489.011c-.548.054-1 .166-1.357.336a1.713 1.713 0 0 0-.415.27 1.141 1.141 0 0 0-.389.888 1.033 1.033 0 0 0 .443.886c.227.165.596.322 1.107.471.168.049.336.093.505.134l1.531.362c.64.139 1.274.31 1.897.511 1.474.484 2.589 1.093 3.342 1.826a5.138 5.138 0 0 1 1.546 3.359c.017.196.025.393.025.59a6.415 6.415 0 0 1-.331 2.111 5.322 5.322 0 0 1-1.885 2.543 7.22 7.22 0 0 1-2.135 1.08c-1.217.395-2.68.592-4.393.592a20.556 20.556 0 0 1-1.713-.068 15.612 15.612 0 0 1-1.37-.173 11.26 11.26 0 0 1-1.143-.258 7.853 7.853 0 0 1-1.254-.468c-.672-.322-1.196-.725-1.572-1.208a2.675 2.675 0 0 1-.564-1.693c-.001-.235.02-.47.065-.7.053-.286.154-.56.298-.811.242-.416.55-.758.927-1.027.484.282.986.535 1.501.757.38.164.767.315 1.158.451.964.34 2.08.513 3.346.524h.12c1.907 0 2.86-.537 2.86-1.611a1.481 1.481 0 0 0-.065-.451 1.15 1.15 0 0 0-.438-.597 2.298 2.298 0 0 0-.34-.198 5.737 5.737 0 0 0-.97-.346 11.21 11.21 0 0 0-.403-.101zm73.013-1.37L210.565 33.1c.139.43.34.839.597 1.212a3.65 3.65 0 0 0 1.377 1.185 6.578 6.578 0 0 0 1.989.614c.422.062.848.092 1.275.091.815.004 1.629-.084 2.425-.26.255-.058.508-.125.758-.203.35-.108.697-.228 1.039-.361.533-.21.993-.431 1.379-.667.403.27.738.619 1.007 1.048.266.422.406.912.403 1.41a2.46 2.46 0 0 1-.564 1.612 3.83 3.83 0 0 1-.769.701 5.29 5.29 0 0 1-.782.448 7.562 7.562 0 0 1-1.078.402 10.378 10.378 0 0 1-1.26.283c-.53.085-1.065.145-1.601.179-.453.028-.907.043-1.36.042-.95.004-1.897-.083-2.83-.26a12.605 12.605 0 0 1-1.562-.405 9.952 9.952 0 0 1-2.504-1.218 8.958 8.958 0 0 1-.961-.756 8.804 8.804 0 0 1-1.975-2.625 10.496 10.496 0 0 1-.302-.66c-.535-1.276-.81-2.77-.826-4.478v-.155c-.003-.711.05-1.422.158-2.125a9.528 9.528 0 0 1 1.912-4.452c.293-.373.619-.721.972-1.04a8.791 8.791 0 0 1 3.183-1.832 11.832 11.832 0 0 1 3.687-.585c.779-.003 1.556.07 2.32.22.492.099.976.234 1.448.405a9.114 9.114 0 0 1 2.082 1.067 7.913 7.913 0 0 1 2.773 3.385c.405.94.634 1.945.675 2.967.007.153.01.306.01.459a3.86 3.86 0 0 1-.066.739 2.45 2.45 0 0 1-.265.743c-.094.168-.214.32-.354.452-.457.43-1.102.712-1.934.846zm21.88 0L232.445 33.1c.139.43.34.839.597 1.212.352.504.826.912 1.377 1.185a6.579 6.579 0 0 0 1.989.614 8.63 8.63 0 0 0 1.275.091c.816.003 1.629-.084 2.425-.26.255-.058.508-.125.758-.203.35-.108.697-.228 1.039-.361.325-.128.622-.26.893-.397.165-.083.327-.173.486-.27.403.27.738.619 1.007 1.048.267.422.406.912.403 1.41 0 .619-.188 1.156-.564 1.612a3.83 3.83 0 0 1-.769.701 5.28 5.28 0 0 1-.782.448 7.565 7.565 0 0 1-1.078.402c-.39.114-.81.208-1.26.283-.53.085-1.065.145-1.601.179-.453.028-.906.043-1.36.042-.95.004-1.897-.083-2.83-.26a12.604 12.604 0 0 1-1.562-.405 9.952 9.952 0 0 1-2.504-1.218 8.956 8.956 0 0 1-.961-.756 8.797 8.797 0 0 1-1.945-2.567c-.12-.235-.23-.474-.332-.718-.551-1.315-.826-2.86-.826-4.633a13.59 13.59 0 0 1 .158-2.125 9.543 9.543 0 0 1 1.911-4.452c.294-.373.62-.721.973-1.04a8.792 8.792 0 0 1 3.183-1.832 11.834 11.834 0 0 1 3.687-.585c.779-.003 1.556.07 2.32.22.492.099.976.234 1.448.405 1.141.417 2.122 1.001 2.941 1.753a7.913 7.913 0 0 1 1.914 2.7c.405.939.634 1.944.675 2.966.007.153.01.306.01.459 0 .598-.11 1.092-.331 1.482-.094.168-.214.32-.354.452-.24.222-.517.402-.819.53a4.261 4.261 0 0 1-.807.258 5.643 5.643 0 0 1-.308.058zm-65.518-4.07v9.107c.001.235-.022.469-.07.698-.069.311-.185.584-.351.818-.039.054-.08.106-.123.156-.363.417-.8.773-1.31 1.068a8.358 8.358 0 0 1-1.39.675 11.663 11.663 0 0 1-1.672.493c-1.19.265-2.536.4-4.04.403h-.07a17.58 17.58 0 0 1-2.626-.183 11.515 11.515 0 0 1-2.483-.645 8.373 8.373 0 0 1-1.5-.763c-1.639-1.061-2.458-2.68-2.458-4.855a7.466 7.466 0 0 1 .178-1.682c.182-.788.504-1.463.966-2.025.155-.188.325-.364.508-.525a5.974 5.974 0 0 1 1.561-.967 9.693 9.693 0 0 1 1.704-.55 15.186 15.186 0 0 1 1.812-.296l5.36-.564v-.443c0-.85-.343-1.478-1.026-1.881a3.794 3.794 0 0 0-.895-.37c-.571-.16-1.262-.242-2.07-.247a12.702 12.702 0 0 0-3.08.362c-.498.122-.991.262-1.479.42-.392.127-.78.27-1.161.426a2.135 2.135 0 0 1-.462-.423 3.146 3.146 0 0 1-.365-.564 3.075 3.075 0 0 1-.342-1.43c-.009-.44.094-.875.3-1.264.2-.366.498-.678.897-.935.208-.133.428-.247.656-.34.78-.295 1.686-.517 2.72-.665a21.556 21.556 0 0 1 3.043-.222c.708-.002 1.415.038 2.118.12.569.066 1.133.168 1.69.304a9.345 9.345 0 0 1 1.586.539 7.3 7.3 0 0 1 1.335.77 6.012 6.012 0 0 1 1.874 2.256c.264.554.448 1.142.546 1.747.081.488.12.982.119 1.477zm-41.423 0v9.107c.002.235-.021.469-.07.698a2.21 2.21 0 0 1-.35.818c-.039.054-.08.106-.124.156a5.069 5.069 0 0 1-1.31 1.068 8.344 8.344 0 0 1-1.39.675 11.667 11.667 0 0 1-1.672.493c-1.19.265-2.536.4-4.038.403h-.072c-1.996 0-3.699-.276-5.108-.828a8.372 8.372 0 0 1-1.5-.763c-1.639-1.061-2.458-2.68-2.458-4.855 0-1.854.55-3.265 1.652-4.232a5.973 5.973 0 0 1 1.561-.967 9.689 9.689 0 0 1 1.704-.55 15.189 15.189 0 0 1 1.813-.296l5.359-.564v-.443c.003-.27-.038-.54-.121-.797-.157-.466-.466-.83-.927-1.097-.685-.395-1.666-.596-2.944-.604a12.702 12.702 0 0 0-3.08.362c-.498.122-.99.262-1.478.42-.392.127-.78.27-1.162.426-.298-.198-.556-.495-.773-.888a3.075 3.075 0 0 1-.395-1.53c-.009-.44.095-.874.3-1.263a2.6 2.6 0 0 1 .896-.935c.208-.133.429-.247.658-.34.778-.295 1.685-.517 2.72-.665a21.556 21.556 0 0 1 3.042-.222c.707-.002 1.415.038 2.118.12.569.066 1.133.168 1.69.304a9.34 9.34 0 0 1 1.586.539c.47.209.918.467 1.335.77a6.014 6.014 0 0 1 1.874 2.256c.264.554.448 1.142.546 1.747.081.488.12.982.118 1.477zm45.976 8.26V14a12.222 12.222 0 0 1 1.168-.242c.27-.044.543-.076.816-.094.265-.019.53-.027.796-.027a8.61 8.61 0 0 1 .89.043c.755.078 1.324.266 1.71.562.222.177.397.408.508.67.166.373.257.85.274 1.43.002.065.003.13.003.196v4.594c.537-.242 1.154-.45 1.853-.625a9.491 9.491 0 0 1 2.297-.262 10.733 10.733 0 0 1 3.049.426c.222.066.441.139.658.22a8.139 8.139 0 0 1 3.002 1.933A8.622 8.622 0 0 1 200.524 25c.168.334.319.677.45 1.027.267.714.457 1.455.567 2.21a14.915 14.915 0 0 1 .16 2.242c.002.753-.054 1.504-.17 2.247a10.545 10.545 0 0 1-.596 2.226 9.302 9.302 0 0 1-1.274 2.27 8.275 8.275 0 0 1-.883.974 8.897 8.897 0 0 1-2.864 1.798c-.158.063-.318.121-.48.176-1.303.444-2.76.665-4.372.665a17.916 17.916 0 0 1-1.943-.1 12.387 12.387 0 0 1-1.836-.333 9.657 9.657 0 0 1-.572-.171 14.708 14.708 0 0 1-1.46-.57 9.9 9.9 0 0 1-1.563-.88 4.408 4.408 0 0 1-.986-.89 3.371 3.371 0 0 1-.746-2.173zM15.84 33.74V22.941a3.768 3.768 0 1 1 7.535 0v10.798a5.486 5.486 0 0 0 5.48 5.48 5.442 5.442 0 0 0 3.787-1.525 15.23 15.23 0 0 0 3.77 6.631 12.939 12.939 0 0 1-7.557 2.43c-7.177 0-13.015-5.84-13.015-13.016zm172.24-7.732v9.227c.161.107.33.199.507.276a4.88 4.88 0 0 0 .702.248c.24.066.486.114.733.145.297.038.617.057.96.057a4.78 4.78 0 0 0 1.448-.21 3.805 3.805 0 0 0 1.755-1.16c.792-.914 1.189-2.284 1.189-4.11.002-.49-.028-.98-.091-1.466-.146-1.083-.47-1.93-.97-2.542a3.22 3.22 0 0 0-.088-.102c-.765-.86-1.793-1.29-3.082-1.29a5.65 5.65 0 0 0-.933.074 4.436 4.436 0 0 0-.74.188c-.486.17-.952.392-1.39.665zM19.609 8.945a3.767 3.767 0 1 1 0 7.535 3.767 3.767 0 0 1 0-7.535zm33.22 3.768a3.767 3.767 0 1 0 7.536 0 3.767 3.767 0 0 0-7.535 0zm179.214 16.235l7.696-1.25a2.997 2.997 0 0 0-.454-1.352 4.162 4.162 0 0 0-.473-.622c-.502-.549-1.227-.855-2.177-.915a5.69 5.69 0 0 0-.361-.011 4.62 4.62 0 0 0-1.428.212 3.851 3.851 0 0 0-1.453.856c-.766.712-1.216 1.74-1.35 3.082zm-21.88 0l7.696-1.25a2.999 2.999 0 0 0-.454-1.352 4.157 4.157 0 0 0-.473-.622c-.564-.617-1.41-.926-2.539-.926a4.619 4.619 0 0 0-1.427.212 3.855 3.855 0 0 0-1.454.856 3.97 3.97 0 0 0-1.008 1.545 6.12 6.12 0 0 0-.341 1.537zm-80.145 6.73V31.97l-3.304.281c-.29.026-.578.07-.862.131-.281.062-.538.14-.77.236-.153.062-.301.135-.443.218a1.641 1.641 0 0 0-.502.443c-.16.219-.252.478-.277.777a2.076 2.076 0 0 0 .113.89c.12.322.33.604.605.811.184.14.39.248.608.321.391.14.88.218 1.468.238a8.523 8.523 0 0 0 2.055-.176c.542-.114.96-.257 1.253-.43.02-.01.038-.022.056-.034zm41.422 0V31.97l-3.304.281c-.645.06-1.195.185-1.65.374-.147.06-.289.13-.425.21a1.64 1.64 0 0 0-.502.444c-.16.219-.252.478-.277.777a2.077 2.077 0 0 0 .113.89c.12.322.33.604.606.811.184.14.389.248.607.321.392.14.881.218 1.468.238a8.509 8.509 0 0 0 2.054-.176c.542-.114.961-.257 1.255-.43l.055-.034z" fill="#28a1b2" fill-rule="evenodd"/></svg>