<svg xmlns="http://www.w3.org/2000/svg" width="16.323" height="16.352" viewBox="0 0 16.323 16.352">
  <g id="Group_76" data-name="Group 76" transform="translate(-2093.398 55.649)">
    <path id="Path_189" data-name="Path 189" d="M2109.244-41.4c-.489.5-.986.986-1.479,1.48a2.113,2.113,0,0,1-1.26.593,1.032,1.032,0,0,0-.12.03h-.671c-.4-.086-.8-.152-1.194-.262a9.9,9.9,0,0,1-2.285-1.006,21.36,21.36,0,0,1-5.366-4.508,17.515,17.515,0,0,1-2.574-3.772,8.226,8.226,0,0,1-.862-2.673,2.839,2.839,0,0,1,.24-1.727,2.145,2.145,0,0,1,.346-.474c.475-.489.966-.962,1.442-1.449a1.626,1.626,0,0,1,2.31,0c.743.724,1.475,1.461,2.2,2.2a1.528,1.528,0,0,1,.01,2.223,1.559,1.559,0,0,1-.484.3,1.664,1.664,0,0,0-.99.891,1.363,1.363,0,0,0-.062.919,5.55,5.55,0,0,0,1.347,2.287,7.269,7.269,0,0,0,2.194,1.7,2.088,2.088,0,0,0,1.191.287,1.471,1.471,0,0,0,1.263-.917,1.715,1.715,0,0,1,.642-.868,1.529,1.529,0,0,1,1.922.214q1.15,1.12,2.27,2.27A1.618,1.618,0,0,1,2109.244-41.4Z" transform="translate(0)" fill="#fff"/>
  </g>
</svg>
