<svg xmlns="http://www.w3.org/2000/svg" width="37.092" height="46.997" viewBox="0 0 37.092 46.997">
  <g id="Group_75" data-name="Group 75" transform="translate(-2930.208 -227.7)">
    <path id="Path_185" data-name="Path 185" d="M2966.7,244.644a4.334,4.334,0,0,0-1.594-5.975,2.959,2.959,0,0,1-1.607-2.8,4.35,4.35,0,0,0-4.348-4.36,2.976,2.976,0,0,1-2.834-1.635,4.323,4.323,0,0,0-5.9-1.591,3.022,3.022,0,0,1-3.314,0,4.325,4.325,0,0,0-5.9,1.6,2.98,2.98,0,0,1-2.835,1.633,4.351,4.351,0,0,0-4.345,4.362,2.976,2.976,0,0,1-1.648,2.828,4.317,4.317,0,0,0-1.592,5.868,3.064,3.064,0,0,1,0,3.357,4.328,4.328,0,0,0,1.615,5.9,2.921,2.921,0,0,1,1.618,2.8,4.333,4.333,0,0,0,3.384,4.249c.349.083.708.124,1.1.19-.109.2-.2.374-.3.543q-2.072,3.593-4.148,7.184a.952.952,0,0,0,0,1.152.937.937,0,0,0,1.115.286c.526-.158,1.06-.284,1.593-.425l3.358-.9c.048.15.086.248.113.349.4,1.49.807,2.977,1.191,4.47a1.311,1.311,0,0,0,.731.982h.55a6,6,0,0,0,.691-.821c1.7-2.915,3.381-5.841,5.07-8.762.082-.143.169-.284.3-.5.113.184.2.318.277.455,1.7,2.935,3.385,5.874,5.093,8.8a5.913,5.913,0,0,0,.689.821h.551a1.284,1.284,0,0,0,.721-.939c.3-1.183.621-2.361.938-3.541.116-.436.241-.87.366-1.317.14.033.229.05.315.074,1.579.422,3.157.84,4.733,1.266a.9.9,0,0,0,1.027-.308.913.913,0,0,0,.046-1.074c-.066-.121-.137-.239-.206-.358l-4.056-7.024c-.079-.136-.149-.276-.238-.44.268-.034.464-.06.66-.087a4.354,4.354,0,0,0,3.829-4.338,2.947,2.947,0,0,1,1.622-2.8,4.339,4.339,0,0,0,1.571-5.982A2.925,2.925,0,0,1,2966.7,244.644Zm-23.983,26.74c-.141-.5-.257-.9-.367-1.3-.216-.8-.423-1.594-.644-2.388a.951.951,0,0,0-1.339-.774c-1.193.315-2.382.642-3.7,1l3.7-6.409a5.6,5.6,0,0,1,.635.818,4.457,4.457,0,0,0,5.45,2.2,1.038,1.038,0,0,1,.235-.012Zm18.126-3.476-2.652-.71c-.384-.1-.765-.213-1.151-.3a.914.914,0,0,0-1.216.721c-.314,1.132-.612,2.268-.917,3.4-.023.086-.059.168-.12.342-1.337-2.313-2.633-4.559-3.978-6.888.345.087.589.163.837.211a4.414,4.414,0,0,0,4.729-2.13c.209-.348.465-.668.755-1.079C2958.384,263.653,2959.584,265.731,2960.842,267.909Zm4.21-19.265a2.564,2.564,0,0,1-1.01,3.691,4.409,4.409,0,0,0-2.367,4.1,2.582,2.582,0,0,1-2.738,2.73,4.414,4.414,0,0,0-4.1,2.371,2.562,2.562,0,0,1-3.693,1,4.447,4.447,0,0,0-4.776,0,2.558,2.558,0,0,1-3.694-.994,4.413,4.413,0,0,0-4.1-2.375,2.584,2.584,0,0,1-2.741-2.727,4.419,4.419,0,0,0-2.363-4.106,2.568,2.568,0,0,1-.993-3.728,4.422,4.422,0,0,0-.009-4.737,2.557,2.557,0,0,1,.979-3.7,4.438,4.438,0,0,0,2.386-4.14,2.573,2.573,0,0,1,2.714-2.7,4.451,4.451,0,0,0,4.136-2.394,2.55,2.55,0,0,1,3.659-.991,4.46,4.46,0,0,0,4.818,0,2.555,2.555,0,0,1,3.661.986,4.443,4.443,0,0,0,4.134,2.4,2.573,2.573,0,0,1,2.718,2.7,4.424,4.424,0,0,0,2.424,4.161,2.728,2.728,0,0,1,1.376,2.519,6.9,6.9,0,0,1-.44,1.152A4.476,4.476,0,0,0,2965.052,248.643Z" transform="translate(0 0)" fill="#28a1b2"/>
    <path id="Path_186" data-name="Path 186" d="M2997.923,281.751a13.592,13.592,0,0,1-27.121,1.306,13.318,13.318,0,0,1,1.179-6.964c.347-.754.819-1.009,1.368-.743.533.26.636.767.3,1.5a11.74,11.74,0,1,0,12.321-6.711,11.543,11.543,0,0,0-6.533.945c-.792.362-1.31.255-1.561-.32-.239-.548.021-.991.8-1.346a13.6,13.6,0,0,1,19.113,10.643C2997.856,280.622,2997.879,281.188,2997.923,281.751Z" transform="translate(-35.56 -35.523)" fill="#28a1b2"/>
    <path id="Path_187" data-name="Path 187" d="M3031.716,327.219a2.923,2.923,0,0,0-2.571-2.882c-.5-.063-1-.054-1.563-.081.153-.454.291-.857.427-1.26a2.471,2.471,0,0,0,0-1.708,2.476,2.476,0,0,0-4.4-.52,9.8,9.8,0,0,1-2.213,2.489c-.272.211-.5.351-.853.13a1.252,1.252,0,0,0-.623-.113c-.872-.011-1.743-.016-2.615,0a1.686,1.686,0,0,0-1.738,1.742q-.013,3.717,0,7.432a1.665,1.665,0,0,0,1.723,1.746c.887.013,1.777.039,2.66-.015a5.219,5.219,0,0,0,1.105-.354,1.18,1.18,0,0,1,.519-.072,15.727,15.727,0,0,0,2.146.417c1.71.065,3.424.047,5.137.017a2.912,2.912,0,0,0,2.863-2.884C3031.735,329.941,3031.733,328.58,3031.716,327.219Zm-11.893,5.111h-2.408v-7.2h2.408Zm10.062-1.275a1.149,1.149,0,0,1-1.291,1.3c-1.529.006-3.059.043-4.585-.017a9.166,9.166,0,0,1-2-.417.6.6,0,0,1-.3-.461c-.029-.977-.014-1.957-.014-2.935,0-.962-.016-1.926.012-2.888a.785.785,0,0,1,.284-.547,10.785,10.785,0,0,0,3.031-3.15c.272-.434.608-.575.944-.39.4.221.408.565.268.951-.13.358-.256.72-.369,1.084a1.337,1.337,0,0,1-.638.928.766.766,0,0,0-.3.972.824.824,0,0,0,.816.623c.871.012,1.742.006,2.614.009,1.152,0,1.531.382,1.531,1.541C3029.886,328.793,3029.89,329.924,3029.885,331.055Z" transform="translate(-74.885 -80.675)" fill="#28a1b2"/>
    <path id="Path_188" data-name="Path 188" d="M3002.825,299.4a.889.889,0,0,1-.889.911.9.9,0,0,1-.928-.922.918.918,0,0,1,.917-.9A.905.905,0,0,1,3002.825,299.4Z" transform="translate(-62.121 -62.111)" fill="#28a1b2"/>
  </g>
</svg>
