<svg xmlns="http://www.w3.org/2000/svg" width="21.499" height="21.502" viewBox="0 0 21.499 21.502">
  <path id="Path_11" data-name="Path 11" d="M160.75,252.024a9.649,9.649,0,1,1-.238-15.212,9.384,9.384,0,0,1,3.753,6.494,9.541,9.541,0,0,1-2.073,7.266,1.518,1.518,0,0,1,.256.168q1.861,1.853,3.717,3.711a1.077,1.077,0,0,1,.334,1.116,1.065,1.065,0,0,1-1.693.552,2.516,2.516,0,0,1-.22-.205q-1.84-1.838-3.678-3.678A1.817,1.817,0,0,1,160.75,252.024Zm1.453-7.515a7.507,7.507,0,1,0-7.516,7.5A7.489,7.489,0,0,0,162.2,244.509Z" transform="translate(-145.044 -234.851)" fill="#032e34"/>
</svg>
