<svg xmlns="http://www.w3.org/2000/svg" width="47" height="46.998" viewBox="0 0 47 46.998">
  <g id="Group_74" data-name="Group 74" transform="translate(-2466.87 -217.67)">
    <path id="Path_171" data-name="Path 171" d="M2513.863,223.02a2.041,2.041,0,0,0-2.038-2.14,20.659,20.659,0,0,1-7.907-1.957c-.325-.165-.63-.373-.948-.557-.4-.234-.813-.465-1.221-.7h-.825c-.406.234-.813.466-1.219.7-.316.184-.622.39-.948.555a20.591,20.591,0,0,1-7.861,1.95,2.051,2.051,0,0,0-2.091,2.226q0,3.051,0,6.1a19.547,19.547,0,0,0,1.892,8.423c.055.118.1.243.166.414h-.6q-9.655,0-19.31,0a3.888,3.888,0,0,0-4,3.153.8.8,0,0,1-.079.158V261.36a1.954,1.954,0,0,1,.094.245,3.92,3.92,0,0,0,3.856,3.056c1.574.012,3.15,0,4.724,0q13.991,0,27.982,0a3.883,3.883,0,0,0,3.943-2.988,5.453,5.453,0,0,0,.13-1.272q.012-8.165,0-16.33a1.008,1.008,0,0,1,.328-.8,19.417,19.417,0,0,0,5.81-12c.155-1.408.1-2.84.123-4.26C2513.877,225.681,2513.869,224.35,2513.863,223.02Zm-7.823,37.388a2.408,2.408,0,0,1-2.687,2.693h-32.26a2.4,2.4,0,0,1-2.66-2.667V242.261a2.386,2.386,0,0,1,2.663-2.657q10.1,0,20.192-.01a.793.793,0,0,1,.758.424,19.663,19.663,0,0,0,8.458,7.23,1.9,1.9,0,0,0,1.77-.05c1.119-.623,2.217-1.286,3.322-1.935.125-.074.244-.161.444-.292ZM2512,232.236a17.838,17.838,0,0,1-10.316,13.5.94.94,0,0,1-.725-.01,17.858,17.858,0,0,1-10.4-14.09,40.158,40.158,0,0,1-.19-4.943c-.026-1.177-.006-2.354,0-3.533,0-.576.107-.673.69-.721a21.6,21.6,0,0,0,8.548-2.2,13.868,13.868,0,0,0,1.316-.829.608.608,0,0,1,.792-.016,17.7,17.7,0,0,0,8.266,2.868c.575.075,1.154.135,1.732.175a.551.551,0,0,1,.593.643c-.011,1.177,0,2.355,0,3.533l.112.007A51.6,51.6,0,0,1,2512,232.236Z" transform="translate(0 0)" fill="#28a1b2"/>
    <path id="Path_172" data-name="Path 172" d="M2719.076,498.67c-.158,0-.316,0-.476,0l.476,0h0Z" transform="translate(-220.863 -246.544)" fill="#28a1b2"/>
    <path id="Path_173" data-name="Path 173" d="M2506.641,417.993a2.3,2.3,0,0,0-2.139-2.23c-.578-.039-1.16-.006-1.74-.006v0c-.612,0-1.225-.036-1.833.007a2.267,2.267,0,0,0-2.093,2.17c-.026.579-.022,1.161-.007,1.741a2.315,2.315,0,0,0,2.294,2.322q1.6.046,3.209,0a2.337,2.337,0,0,0,2.315-2.357C2506.654,419.093,2506.66,418.543,2506.641,417.993Zm-1.561,1.6a.782.782,0,0,1-.825.845q-1.534.028-3.068,0a.758.758,0,0,1-.793-.82c-.013-.5-.014-1.008,0-1.511a.728.728,0,0,1,.769-.785c.519-.02,1.037,0,1.557,0v0c.5,0,1.007-.011,1.511,0a.777.777,0,0,1,.85.858C2505.093,418.644,2505.094,419.118,2505.08,419.591Z" transform="translate(-28.029 -173.786)" fill="#28a1b2"/>
    <path id="Path_174" data-name="Path 174" d="M2722.314,529.018a.715.715,0,0,1-.749.76q-2.363.022-4.724,0a.738.738,0,0,1-.771-.786.779.779,0,0,1,.855-.766c1.069-.013,2.14,0,3.21,0h.624c0-1.041,0-2.032,0-3.021a.781.781,0,0,1,.562-.845.751.751,0,0,1,.993.717C2722.332,526.388,2722.327,527.7,2722.314,529.018Z" transform="translate(-218.642 -269.048)" fill="#28a1b2"/>
    <path id="Path_175" data-name="Path 175" d="M2506.283,550.616a.772.772,0,0,1-.844.818c-.623.01-1.246.007-1.87,0l-.787,0h-1.47c-.411,0-.82,0-1.231,0a.693.693,0,0,1-.761-.531,1.319,1.319,0,0,1,.216-.822c.084-.136.374-.2.572-.2,1.772-.015,3.542-.012,5.313-.006A.761.761,0,0,1,2506.283,550.616Z" transform="translate(-28.463 -291.467)" fill="#28a1b2"/>
    <path id="Path_176" data-name="Path 176" d="M2554.642,486.656a.766.766,0,0,1-.851.763c-.353.01-.706.009-1.061,0l-.454,0-.419,0-.51,0c-.179,0-.359,0-.538-.007a.781.781,0,1,1-.02-1.557q1.515-.028,3.029,0A.765.765,0,0,1,2554.642,486.656Z" transform="translate(-72.901 -235.294)" fill="#28a1b2"/>
    <path id="Path_177" data-name="Path 177" d="M2708,486.669a.772.772,0,0,1-.821.752c-.423.016-.847.007-1.271.006h-.243l-.476,0c-.251,0-.5,0-.755,0l-.283-.006a.781.781,0,1,1,0-1.557q1.514-.026,3.028,0A.78.78,0,0,1,2708,486.669Z" transform="translate(-207.457 -235.298)" fill="#28a1b2"/>
    <path id="Path_178" data-name="Path 178" d="M2503.614,486.664a.8.8,0,0,1-.863.761c-.031,0-.061,0-.092,0h-1.422c-.489,0-.978.011-1.468,0a.78.78,0,1,1-.01-1.557c.993-.018,1.988-.016,2.982,0A.8.8,0,0,1,2503.614,486.664Z" transform="translate(-28.129 -235.298)" fill="#28a1b2"/>
    <path id="Path_179" data-name="Path 179" d="M2605.684,486.641a.756.756,0,0,1-.826.784c-.5.017-1.009,0-1.514,0s-1.009.012-1.513,0a.778.778,0,1,1-.016-1.552q1.536-.029,3.074,0A.749.749,0,0,1,2605.684,486.641Z" transform="translate(-117.682 -235.302)" fill="#28a1b2"/>
    <path id="Path_180" data-name="Path 180" d="M2656.876,486.673a.8.8,0,0,1-.869.754h-1.515v0c-.489,0-.978.012-1.467,0a.781.781,0,1,1,.006-1.557q1.49-.024,2.982,0A.789.789,0,0,1,2656.876,486.673Z" transform="translate(-162.596 -235.298)" fill="#28a1b2"/>
    <path id="Path_181" data-name="Path 181" d="M2528.333,525.068a.737.737,0,0,1-.718.8q-1.214.05-2.428,0a.748.748,0,0,1-.745-.818.761.761,0,0,1,.786-.73c.031,0,.061,0,.092,0h1.1v0c.381,0,.764-.015,1.145,0A.745.745,0,0,1,2528.333,525.068Z" transform="translate(-50.512 -269.044)" fill="#28a1b2"/>
    <path id="Path_182" data-name="Path 182" d="M2688.029,249.915a18.939,18.939,0,0,1-6.379-2.043,1.908,1.908,0,0,0-2,0,8.941,8.941,0,0,1-.906.439,21.158,21.158,0,0,1-5.925,1.681,1.624,1.624,0,0,0-1.581,1.823c0,.719,0,1.437,0,2.156h.084c0,1.037,0,2.076,0,3.115a4.536,4.536,0,0,0,.075.636,16.531,16.531,0,0,0,8.341,12.24,1.607,1.607,0,0,0,1.736.031,16.267,16.267,0,0,0,8.364-12.258c.254-1.773.12-3.6.208-5.4S2689.439,250.092,2688.029,249.915Zm-.356,10.378a15.185,15.185,0,0,1-6.663,8.176.609.609,0,0,1-.74-.01,14.955,14.955,0,0,1-7.46-12.988c-.032-1.281-.005-2.564-.005-3.892a20.083,20.083,0,0,0,6.623-1.894,2.387,2.387,0,0,1,2.43,0,20,20,0,0,0,6.3,1.845c.088.012.177.031.253.044.026.044.054.07.054.1C2688.481,254.572,2688.673,257.483,2687.673,260.293Z" transform="translate(-179.312 -26.251)" fill="#28a1b2"/>
    <path id="Path_183" data-name="Path 183" d="M2723.854,293c0-1.17-.381-1.647-1.56-1.92a3.167,3.167,0,0,0-.461-2.134,2.313,2.313,0,0,0-1.984-.949c-1.436.039-2.14.983-2.272,3.09a1.641,1.641,0,0,0-1.543,1.918c0,1.406,0,2.812,0,4.218a1.549,1.549,0,0,0,1.687,1.722q2.223.011,4.446,0a1.544,1.544,0,0,0,1.684-1.681C2723.859,295.838,2723.855,294.416,2723.854,293Zm-4.334-3.286a.969.969,0,0,1,.8-.028c.585.3.376.884.395,1.414h-1.54C2719.194,290.587,2718.981,290.027,2719.519,289.709Zm2.739,7.633h-4.644v-4.629h4.644Z" transform="translate(-218.612 -61.699)" fill="#28a1b2"/>
    <path id="Path_184" data-name="Path 184" d="M2743.139,339.8a.779.779,0,0,1-1.556.058.791.791,0,0,1,.747-.822A.8.8,0,0,1,2743.139,339.8Z" transform="translate(-241.027 -106.484)" fill="#28a1b2"/>
  </g>
</svg>
