<svg xmlns="http://www.w3.org/2000/svg" width="40.891" height="28.81" viewBox="0 0 40.891 28.81">
  <g id="Group_221" data-name="Group 221" transform="translate(440 -392.972)">
    <path id="Path_200" data-name="Path 200" d="M-399.115,413.771a1.69,1.69,0,0,0-.573-1.231.726.726,0,0,1-.213-.457c-.022-.786,0-1.574-.014-2.36a3.973,3.973,0,0,0-3.919-3.934.507.507,0,0,1-.554-.416q-.987-2.7-2.009-5.387a3.184,3.184,0,0,0-2.713-2.179,9.928,9.928,0,0,0-1.235-.032c-.928,0-1.856,0-2.823,0v-2.147a2.419,2.419,0,0,0-2.651-2.654h-18.287c-.906,0-1.81-.009-2.715,0a2.356,2.356,0,0,0-2.323,1.928,4.981,4.981,0,0,0-.055.954q0,8.081-.007,16.163a.855.855,0,0,1-.1.436c-.213.344-.458.668-.689,1v2.24a2.822,2.822,0,0,0,.553.851,2.3,2.3,0,0,0,1.123.411c.787.061,1.584.018,2.365.018a5.641,5.641,0,0,0,5.282,4.793,5.4,5.4,0,0,0,3.491-1.033,5.639,5.639,0,0,0,2.31-3.761c.534,0,1.052,0,1.568,0,.585,0,.948-.307.954-.791s-.361-.8-.937-.808c-.529,0-1.059,0-1.552,0l-.465-1.568H-413.8l-.467,1.568c-.54,0-1.087-.035-1.627.016a1.039,1.039,0,0,0-.7.355,1.039,1.039,0,0,0-.063.775.691.691,0,0,0,.728.453c.568,0,1.135,0,1.691,0a5.653,5.653,0,0,0,5.28,4.8,5.664,5.664,0,0,0,5.825-4.8c.789,0,1.586.006,2.382,0a1.6,1.6,0,0,0,1.638-1.645Q-399.1,414.551-399.115,413.771Zm-36.87,1.584h-2.4v-1.548h2.858C-435.68,414.335-435.828,414.83-435.984,415.355Zm5.566,4.823a4.01,4.01,0,0,1-3.99-3.992,4.007,4.007,0,0,1,3.973-4.007,4.007,4.007,0,0,1,4.01,3.971A4.007,4.007,0,0,1-430.419,420.179Zm15.654-8h-.45c-3.633,0-7.265,0-10.9-.011a1.115,1.115,0,0,1-.665-.249,5.615,5.615,0,0,0-7.3.015,1.08,1.08,0,0,1-.629.234c-.954.025-1.909.011-2.883.011v-1.6c.219,0,.439,0,.659,0a.819.819,0,0,0,.915-.788c.006-.485-.358-.8-.934-.811-.2,0-.4,0-.66,0v-.432q0-6.459,0-12.919c0-.79.262-1.052,1.055-1.052h20.758c.73,0,1.025.274,1.025.961q0,8.158,0,16.319Zm7.674-9.461c.385,1,.759,2,1.148,3.041h-4.016v-3.18c.9,0,1.784,0,2.668.005A.269.269,0,0,1-407.091,402.717Zm-1.578,17.461a4.009,4.009,0,0,1-4.019-4,4.007,4.007,0,0,1,3.984-4,4.007,4.007,0,0,1,4,3.982A4.009,4.009,0,0,1-408.668,420.179Zm3.686-8.183a5.574,5.574,0,0,0-7.439,0,2.41,2.41,0,0,1-.719.262V399.376h1.341q1.018,0,2.036,0a1.777,1.777,0,0,1,2,1.6h-1.267c-.532,0-1.065,0-1.6,0a.82.82,0,0,0-.938.927q-.006,2.26,0,4.519c0,.657.3.952.953.953,2.222,0,4.445,0,6.667,0a2.352,2.352,0,0,1,2.1,1.167,4.26,4.26,0,0,1,.211.433c-.252,0-.448-.007-.642,0a.8.8,0,0,0-.818.8.8.8,0,0,0,.831.792c.237.009.475,0,.738,0v1.6c-1.057,0-2.1,0-3.151-.009A.578.578,0,0,1-404.982,412Zm4.254,3.363h-2.4c-.155-.521-.308-1.036-.466-1.565h2.865Z" transform="translate(0 0)" fill="#032e34"/>
    <path id="Path_201" data-name="Path 201" d="M-254.241,603.809a.8.8,0,0,1-.8.815.8.8,0,0,1-.793-.78.8.8,0,0,1,.8-.814A.8.8,0,0,1-254.241,603.809Z" transform="translate(-164.52 -187.648)" fill="#032e34"/>
    <path id="Path_202" data-name="Path 202" d="M-272.539,455.209a2.341,2.341,0,0,0-2.289-2.229c-.478-.015-.958-.005-1.437-.005-.767,0-1.041.268-1.043,1.027,0,.987,0,1.974,0,2.959v3.08c.02.637.31.928.939.934.506,0,1.011.011,1.517,0a2.345,2.345,0,0,0,2.316-2.245C-272.5,457.556-272.5,456.38-272.539,455.209Zm-1.593,3.425a.734.734,0,0,1-.706.733c-.274.022-.552,0-.85,0v-4.79c.3,0,.578-.018.852,0a.735.735,0,0,1,.705.734Q-274.1,456.976-274.132,458.633Z" transform="translate(-145.333 -53.598)" fill="#032e34"/>
    <path id="Path_203" data-name="Path 203" d="M-328.732,455.237a2.37,2.37,0,0,0-2.3-2.223,2.313,2.313,0,0,0-2.422,2.077,30.846,30.846,0,0,0,0,3.833,2.317,2.317,0,0,0,2.414,2.087,2.371,2.371,0,0,0,2.308-2.216c.032-.585.006-1.172.006-1.759S-328.7,455.834-328.732,455.237Zm-1.584,3.321a.791.791,0,0,1-.766.851.8.8,0,0,1-.819-.844q-.024-1.559,0-3.12a.793.793,0,0,1,.792-.832.8.8,0,0,1,.795.864c.011.52,0,1.04,0,1.56S-330.3,458.051-330.316,458.558Z" transform="translate(-95.126 -53.635)" fill="#032e34"/>
    <path id="Path_204" data-name="Path 204" d="M-383.836,458.678a2.409,2.409,0,0,1-2.293,2.328,2.371,2.371,0,0,1-2.469-2.17c-.038-.61-.006-1.226-.006-1.838h-.008c0-.574-.022-1.148.005-1.72a2.375,2.375,0,0,1,2.339-2.269,2.393,2.393,0,0,1,2.423,2.231.821.821,0,0,1-.689.96.8.8,0,0,1-.889-.763c-.1-.594-.485-.925-.964-.809a.714.714,0,0,0-.618.69q-.026,1.68,0,3.36a.75.75,0,0,0,.717.727.789.789,0,0,0,.825-.609c.023-.091.033-.184.049-.275a.794.794,0,0,1,.862-.705A.812.812,0,0,1-383.836,458.678Z" transform="translate(-45.898 -53.631)" fill="#032e34"/>
    <path id="Path_205" data-name="Path 205" d="M-370.186,588.008a2.4,2.4,0,0,0-2.435,2.389,2.4,2.4,0,0,0,2.374,2.41,2.407,2.407,0,0,0,2.415-2.37A2.406,2.406,0,0,0-370.186,588.008Zm-.072,3.2a.806.806,0,0,1-.764-.809.8.8,0,0,1,.826-.785.807.807,0,0,1,.765.808A.806.806,0,0,1-370.257,591.2Z" transform="translate(-60.191 -174.228)" fill="#032e34"/>
    <path id="Path_206" data-name="Path 206" d="M-166.61,588.01a2.4,2.4,0,0,0-2.411,2.372,2.4,2.4,0,0,0,2.4,2.427,2.406,2.406,0,0,0,2.392-2.393A2.4,2.4,0,0,0-166.61,588.01Zm-.048,3.2a.807.807,0,0,1-.764-.809.805.805,0,0,1,.827-.785.806.806,0,0,1,.764.808A.806.806,0,0,1-166.658,591.206Z" transform="translate(-242.069 -174.23)" fill="#032e34"/>
  </g>
</svg>
