<svg xmlns="http://www.w3.org/2000/svg" width="40.89" height="26.274" viewBox="0 0 40.89 26.274">
  <g id="Group_222" data-name="Group 222" transform="translate(1104.25 -120.182)">
    <path id="Path_207" data-name="Path 207" d="M-1054.8,238.77l-1.237,0h1.237c.468,0,.936,0,1.4,0C-1053.867,238.773-1054.336,238.77-1054.8,238.77Z" transform="translate(-43.066 -105.936)" fill="#032e34"/>
    <path id="Path_208" data-name="Path 208" d="M-1064.957,129.911q0-3.373,0-6.748a1.223,1.223,0,0,0-1.369-1.383q-17.469,0-34.937,0a1.229,1.229,0,0,0-1.388,1.4v20.2c0,1.031.442,1.47,1.49,1.471q5.091,0,10.181,0,12.218,0,24.436-.005a2.414,2.414,0,0,0,.931-.153,1.109,1.109,0,0,0,.654-1.1q0-1.637,0-3.274c0-.62.147-.9.546-1.037s.687,0,1.051.492V144.1c-.046.138-.094.275-.138.413a2.752,2.752,0,0,1-2.409,1.921c-.211.018-.425.026-.637.026q-17.266,0-34.533-.01a3.863,3.863,0,0,1-1.512-.26,2.684,2.684,0,0,1-1.661-2.67q0-9.482,0-18.963c0-.52-.005-1.038,0-1.558a2.779,2.779,0,0,1,2.732-2.809c.08,0,.16,0,.239,0q17.466,0,34.932,0a2.769,2.769,0,0,1,2.927,2.245.561.561,0,0,0,.057.106v10.542a.88.88,0,0,1-.875.563.791.791,0,0,1-.72-.852C-1064.962,131.828-1064.957,130.87-1064.957,129.911Z" fill="#032e34"/>
    <path id="Path_209" data-name="Path 209" d="M-734.309,265.687v.479a2.637,2.637,0,0,1-.674.54.711.711,0,0,1-.871-.5.788.788,0,0,1,.357-.953.777.777,0,0,1,1,.19C-734.429,265.519-734.37,265.6-734.309,265.687Z" transform="translate(-329.051 -129.497)" fill="#032e34"/>
    <path id="Path_210" data-name="Path 210" d="M-1067.923,194.723a.8.8,0,0,0-.87-.869q-2.312-.01-4.624,0a.8.8,0,0,0-.891.888q-.01,1.495,0,2.989a.813.813,0,0,0,.909.911c.14,0,.278,0,.418,0h1.854c.468,0,.936,0,1.4,0,.316,0,.632,0,.947-.005a.788.788,0,0,0,.85-.847Q-1067.909,196.257-1067.923,194.723Zm-1.613,2.3h-3.144v-1.548h3.144Z" transform="translate(-26.744 -65.807)" fill="#032e34"/>
    <path id="Path_211" data-name="Path 211" d="M-803.972,158.763a8.283,8.283,0,0,1-2.4,5.745.8.8,0,0,1-1.2.089.8.8,0,0,1,.053-1.2,6.57,6.57,0,0,0,1.929-4.667,6.493,6.493,0,0,0-1.7-4.357c-.088-.1-.184-.192-.27-.292a.8.8,0,0,1,0-1.173.792.792,0,0,1,1.169.086A8.267,8.267,0,0,1-803.972,158.763Z" transform="translate(-264.811 -29.038)" fill="#032e34"/>
    <path id="Path_212" data-name="Path 212" d="M-828.394,176.635a5.275,5.275,0,0,1-1.51,3.625.794.794,0,0,1-1.168.116.8.8,0,0,1,0-1.2,3.649,3.649,0,0,0,1.046-3.056,3.942,3.942,0,0,0-1.057-2.1.772.772,0,0,1,.383-1.349,1.05,1.05,0,0,1,.77.276A5.126,5.126,0,0,1-828.394,176.635Z" transform="translate(-243.792 -46.885)" fill="#032e34"/>
    <path id="Path_213" data-name="Path 213" d="M-1067.88,284.5a.817.817,0,0,1-.92.779q-2.269,0-4.541,0a.816.816,0,0,1-.922-.816.815.815,0,0,1,.92-.779c.756,0,1.514,0,2.27,0s1.514,0,2.27,0A.817.817,0,0,1-1067.88,284.5Z" transform="translate(-26.788 -146.054)" fill="#032e34"/>
    <path id="Path_214" data-name="Path 214" d="M-979.55,284.462a.817.817,0,0,1-.924.814q-2.271,0-4.541,0a.814.814,0,0,1-.918-.781c-.011-.483.355-.811.924-.814.77,0,1.539,0,2.31,0,.744,0,1.487,0,2.231,0A.818.818,0,0,1-979.55,284.462Z" transform="translate(-105.694 -146.054)" fill="#032e34"/>
    <path id="Path_215" data-name="Path 215" d="M-891.969,284.49c-.006.482-.369.786-.951.789-.756,0-1.514,0-2.27,0-.73,0-1.461,0-2.19,0-.608,0-.977-.313-.971-.809s.367-.786.95-.787q2.252,0,4.5,0C-892.328,283.684-891.962,284.007-891.969,284.49Z" transform="translate(-183.932 -146.055)" fill="#032e34"/>
    <path id="Path_216" data-name="Path 216" d="M-804.4,284.46a.819.819,0,0,1-.923.815c-.758,0-1.514,0-2.27,0s-1.514,0-2.27,0a.817.817,0,0,1-.92-.78.818.818,0,0,1,.923-.815q2.271,0,4.541,0A.818.818,0,0,1-804.4,284.46Z" transform="translate(-262.158 -146.052)" fill="#032e34"/>
    <path id="Path_217" data-name="Path 217" d="M-850.776,196.724a1.789,1.789,0,0,1-.751,1.391.775.775,0,0,1-.99-.066.741.741,0,0,1-.114-1.011.416.416,0,0,0,0-.615.736.736,0,0,1,.106-1.01.775.775,0,0,1,.99-.074A1.788,1.788,0,0,1-850.776,196.724Z" transform="translate(-224.639 -67.009)" fill="#032e34"/>
  </g>
</svg>
