<svg xmlns="http://www.w3.org/2000/svg" width="36" height="36" viewBox="0 0 36 36">
  <path id="Subtraction_1" data-name="Subtraction 1" d="M26,36H10A10.011,10.011,0,0,1,0,26V10A10.011,10.011,0,0,1,10,0H26A10.011,10.011,0,0,1,36,10V26A10.011,10.011,0,0,1,26,36ZM8.288,24.522h0l.074.05c.051.035.1.071.157.1a12.876,12.876,0,0,0,6.426,1.809,13.026,13.026,0,0,0,5.238-1.156A12.448,12.448,0,0,0,27.329,13.7a.428.428,0,0,1,.192-.409,8.417,8.417,0,0,0,1.762-1.8c.043-.059.083-.121.122-.18l.064-.1-2.3.639-.02-.044-.02-.044a4.341,4.341,0,0,0,1.8-2.335l-.1.044c-.055.023-.094.04-.131.06a9.567,9.567,0,0,1-2.327.883.454.454,0,0,1-.109.015.321.321,0,0,1-.233-.11,4.315,4.315,0,0,0-3-1.243h-.073a4.353,4.353,0,0,0-4.331,3.976,9.081,9.081,0,0,0-.012.923c0,.149.006.3.006.459A12.431,12.431,0,0,1,9.7,9.891a4.311,4.311,0,0,0-.6,2.47,4.661,4.661,0,0,0,1.9,3.354,4.523,4.523,0,0,1-1.96-.527,4.515,4.515,0,0,0,3.422,4.356l-.005.036-.005.036H10.573a4.519,4.519,0,0,0,4.074,3.06,8.97,8.97,0,0,1-5.6,1.873c-.247,0-.5-.009-.755-.026Z" fill="#1a1818"/>
</svg>
