<svg width="36" height="36" xmlns="http://www.w3.org/2000/svg"><path d="M26 36H10C4.486 36 0 31.514 0 26V10C0 4.486 4.486 0 10 0h16c5.514 0 10 4.486 10 10v16c0 5.514-4.486 10-10 10zM12.471 19.544l-.005.035-.005.037h-1.888c.22.57.534 1.1.93 1.565.652.748 1.503 1.216 2.568 1.415.191.035.383.062.577.08-1.667 1.26-3.5 1.872-5.604 1.872-.253 0-.504-.009-.756-.026a4.037 4.037 0 0 1 .074.05c.05.035.103.071.156.102a13.967 13.967 0 0 0 3.592 1.46c.928.23 1.88.347 2.834.349a12.384 12.384 0 0 0 3.425-.498 14.481 14.481 0 0 0 1.814-.658 12.445 12.445 0 0 0 7.146-11.655c0-.164.046-.264.17-.364a8.417 8.417 0 0 0 1.846-1.903 8.639 8.639 0 0 0 .125-.19 1543.811 1543.811 0 0 0-2.302.64 3.939 3.939 0 0 0-.04-.088 4.34 4.34 0 0 0 1.8-2.334 6.028 6.028 0 0 1-.041.018l-.032.014a19.16 19.16 0 0 1-.121.053 9.231 9.231 0 0 1-1.814.752 11.193 11.193 0 0 1-.599.16.407.407 0 0 1-.062.005.267.267 0 0 1-.124-.03.421.421 0 0 1-.109-.08 4.315 4.315 0 0 0-3.074-1.244c-2.252 0-4.155 1.747-4.331 3.976-.024.302-.018.603-.012.923a336.79 336.79 0 0 1 .007.459A12.43 12.43 0 0 1 9.704 9.89a5.34 5.34 0 0 0-.417.956 3.945 3.945 0 0 0-.182 1.514 4.431 4.431 0 0 0 1.3 2.805c.19.196.392.379.605.549-.775-.009-1.4-.259-1.96-.527.037.616.172 1.222.402 1.795.52 1.246 1.518 2.09 3.02 2.56z" fill="#fff" fill-rule="evenodd"/></svg>