<svg xmlns="http://www.w3.org/2000/svg" width="21.755" height="21.752" viewBox="0 0 21.755 21.752">
  <g id="Group_8" data-name="Group 8" transform="translate(0.125 0.125)">
    <path id="Path_9" data-name="Path 9" d="M837.414,280.257a10.778,10.778,0,0,0-5.238-3.94c.1-.074.159-.118.219-.166a6.116,6.116,0,0,0,2.464-4.8,5.942,5.942,0,0,0-1.022-3.571,6.051,6.051,0,0,0-3.494-2.556c-.414-.116-.847-.167-1.272-.248h-.84c-.424.081-.857.132-1.272.248a6.052,6.052,0,0,0-3.494,2.556,5.942,5.942,0,0,0-1.022,3.572,6.119,6.119,0,0,0,2.465,4.8c.06.047.122.092.216.163l-.242.1a10.7,10.7,0,0,0-6.2,6.048,9.969,9.969,0,0,0-.745,3.213,1.461,1.461,0,0,1-.035.18v.63h1.669a9.119,9.119,0,0,1,8.582-9.057,8.713,8.713,0,0,1,5.592,1.565,9.016,9.016,0,0,1,3.993,7.482H839.4A10.628,10.628,0,0,0,837.414,280.257Zm-8.771-4.527a4.535,4.535,0,1,1,4.543-4.537A4.549,4.549,0,0,1,828.643,275.73Z" transform="translate(-817.9 -264.98)" fill="#1a1818"/>
    <path id="Path_9_-_Outline" data-name="Path 9 - Outline" d="M819.694,286.607h-1.919l0-.779c0-.02.009-.04.014-.061a.689.689,0,0,0,.019-.1,10.131,10.131,0,0,1,.754-3.253,10.864,10.864,0,0,1,6.272-6.116l.034-.013-.04-.031a6.256,6.256,0,0,1-2.513-4.89,6.066,6.066,0,0,1,1.043-3.646,6.185,6.185,0,0,1,3.565-2.607,8.479,8.479,0,0,1,.88-.18c.132-.022.269-.045.4-.07l.023,0,.863,0c.133.025.27.048.4.07a8.479,8.479,0,0,1,.88.18,6.185,6.185,0,0,1,3.564,2.607,6.067,6.067,0,0,1,1.043,3.645,6.252,6.252,0,0,1-2.512,4.89l-.038.03a10.933,10.933,0,0,1,5.082,3.9,10.807,10.807,0,0,1,2.013,6.286v.126h-1.916l0-.121a8.916,8.916,0,0,0-3.94-7.383,8.608,8.608,0,0,0-5.513-1.542,8.957,8.957,0,0,0-8.463,8.933Zm-1.669-.25h1.421a9.245,9.245,0,0,1,8.7-9.057,8.856,8.856,0,0,1,5.67,1.587,9.14,9.14,0,0,1,4.042,7.459h1.42a10.542,10.542,0,0,0-1.964-6.017,10.712,10.712,0,0,0-5.179-3.9l-.216-.078.183-.139.1-.077c.043-.032.079-.059.114-.087a6.012,6.012,0,0,0,2.417-4.7,5.821,5.821,0,0,0-1-3.5,5.942,5.942,0,0,0-3.424-2.505,8.286,8.286,0,0,0-.854-.174c-.13-.022-.264-.044-.4-.069h-.816c-.132.025-.266.047-.4.069a8.306,8.306,0,0,0-.854.174,5.942,5.942,0,0,0-3.424,2.505,5.82,5.82,0,0,0-1,3.5,6.016,6.016,0,0,0,2.417,4.7l.123.093.091.068.178.134-.207.082-.119.047-.123.049a10.622,10.622,0,0,0-6.132,5.98,9.881,9.881,0,0,0-.735,3.173.9.9,0,0,1-.026.144l-.009.041Zm10.631-10.5h-.014a4.672,4.672,0,0,1-4.651-4.658,4.675,4.675,0,0,1,4.655-4.662h.014a4.674,4.674,0,0,1,4.652,4.658,4.674,4.674,0,0,1-4.655,4.662Zm-.01-9.07a4.425,4.425,0,0,0-4.4,4.412,4.422,4.422,0,0,0,4.4,4.408h.013a4.424,4.424,0,0,0,4.4-4.412,4.423,4.423,0,0,0-4.4-4.408Z" transform="translate(-817.9 -264.98)" fill="#1a1818"/>
  </g>
</svg>
