<svg xmlns="http://www.w3.org/2000/svg" width="41" height="26" viewBox="0 0 41 26">
  <g id="Group_224" data-name="Group 224" transform="translate(-184.768 -1307.035)">
    <g id="Group_223" data-name="Group 223" transform="translate(190.64 1315.69)">
      <path id="Path_219" data-name="Path 219" d="M-854.237,579.33c-.863,0-1.7.028-2.535,0a.487.487,0,0,0-.5.306c-.975,2.061-1.978,4.094-2.953,6.156-.5.975-.975,1.977-1.5,3.036.836,0,1.588-.028,2.368,0a.39.39,0,0,0,.418-.306c.278-.585.557-1.2.836-1.783a.459.459,0,0,1,.334-.223c.529-.028,1.086,0,1.643-.028.223,0,.279.084.279.306.028.362.056.752.083,1.142.084.891.111.891.975.891h1.671C-853.485,585.625-853.847,582.505-854.237,579.33Zm-2.952,5.153c.334-.7.64-1.393.947-2.061h.056c.056.668.111,1.365.195,2.061Z" transform="translate(881.729 -579.191)" fill="#032e34"/>
      <path id="Path_220" data-name="Path 220" d="M-858.632,579.33c-.083.167-.111.278-.167.39-1.5,2.925-3.008,5.822-4.512,8.718a.584.584,0,0,1-.641.39c-.7-.028-1.421,0-2.172,0-.362-2.563-.724-5.069-1.086-7.66.668.418,1.281.78,1.894,1.17,0-.028.028-.056.056-.083-1.2-.947-2.4-1.894-3.649-2.9h4.15c.167,1.978.362,3.955.557,6.044.084-.195.139-.279.167-.362.863-1.811,1.7-3.621,2.535-5.432a.409.409,0,0,1,.445-.278Z" transform="translate(868.91 -579.191)" fill="#032e34"/>
      <path id="Path_221" data-name="Path 221" d="M-857.719,584.377a2.849,2.849,0,0,1-.78,3.844,4.9,4.9,0,0,1-3.927.7,2.9,2.9,0,0,1-1.643-.724c.279-.668.529-1.337.78-1.95a11.169,11.169,0,0,0,1.643.529,3.082,3.082,0,0,0,1.337-.083.606.606,0,0,0,.223-1.058c-.2-.167-.39-.278-.585-.418a16.81,16.81,0,0,1-1.449-1,2.6,2.6,0,0,1-.084-3.677,4.019,4.019,0,0,1,3.148-1.253,4.25,4.25,0,0,1,2.368.613c-.251.7-.5,1.393-.724,1.978-.613-.139-1.17-.279-1.755-.362a1.528,1.528,0,0,0-.78.111.514.514,0,0,0-.139.947c.362.278.808.474,1.17.752A6.281,6.281,0,0,1-857.719,584.377Z" transform="translate(877.551 -579.28)" fill="#032e34"/>
      <path id="Path_222" data-name="Path 222" d="M-861.158,579.34c-.167.947-.334,1.866-.529,2.786-.39,2.061-.78,4.122-1.17,6.211-.056.39-.195.5-.585.474-.641-.028-1.281,0-1.978,0,.613-3.175,1.2-6.323,1.783-9.47Z" transform="translate(875.141 -579.173)" fill="#032e34"/>
    </g>
    <path id="Rectangle_127" data-name="Rectangle 127" d="M3,1.5A1.5,1.5,0,0,0,1.5,3V23A1.5,1.5,0,0,0,3,24.5H38A1.5,1.5,0,0,0,39.5,23V3A1.5,1.5,0,0,0,38,1.5H3M3,0H38a3,3,0,0,1,3,3V23a3,3,0,0,1-3,3H3a3,3,0,0,1-3-3V3A3,3,0,0,1,3,0Z" transform="translate(184.768 1307.035)" fill="#032e34"/>
  </g>
</svg>
